<mxfile host="app.diagrams.net" agent="Mozilla/5.0 (Windows NT 10.0; Win64; x64; rv:135.0) Gecko/20100101 Firefox/135.0" version="26.0.16">
  <diagram name="Page-1" id="3_q_bGE4Z-Se7FsiGyFn">
    <mxGraphModel dx="819" dy="431" grid="0" gridSize="18" guides="1" tooltips="1" connect="1" arrows="1" fold="1" page="1" pageScale="1" pageWidth="225" pageHeight="300" background="#FFFFFF" math="0" shadow="0">
      <root>
        <mxCell id="0" />
        <mxCell id="1" parent="0" />
        <mxCell id="TFH7p9IeiASmlbd_Yw0B-1" value="EVENT NAME" style="rounded=0;whiteSpace=wrap;html=1;strokeColor=none;" parent="1" vertex="1">
          <mxGeometry width="225" height="50" as="geometry" />
        </mxCell>
        <mxCell id="uiWN8VyQoNOUGCsHgGrA-16" value="" style="shape=table;startSize=0;container=1;collapsible=0;childLayout=tableLayout;fontSize=16;strokeColor=none;" vertex="1" parent="1">
          <mxGeometry x="53" y="65" width="120" height="120" as="geometry" />
        </mxCell>
        <mxCell id="uiWN8VyQoNOUGCsHgGrA-17" value="" style="shape=tableRow;horizontal=0;startSize=0;swimlaneHead=0;swimlaneBody=0;strokeColor=inherit;top=0;left=0;bottom=0;right=0;collapsible=0;dropTarget=0;fillColor=none;points=[[0,0.5],[1,0.5]];portConstraint=eastwest;fontSize=16;" vertex="1" parent="uiWN8VyQoNOUGCsHgGrA-16">
          <mxGeometry width="120" height="40" as="geometry" />
        </mxCell>
        <mxCell id="uiWN8VyQoNOUGCsHgGrA-18" value="Event Number" style="shape=partialRectangle;html=1;whiteSpace=wrap;connectable=0;strokeColor=inherit;overflow=hidden;fillColor=none;top=0;left=0;bottom=0;right=0;pointerEvents=1;fontSize=9;" vertex="1" parent="uiWN8VyQoNOUGCsHgGrA-17">
          <mxGeometry width="73" height="40" as="geometry">
            <mxRectangle width="73" height="40" as="alternateBounds" />
          </mxGeometry>
        </mxCell>
        <mxCell id="uiWN8VyQoNOUGCsHgGrA-19" value="1" style="shape=partialRectangle;html=1;whiteSpace=wrap;connectable=0;strokeColor=inherit;overflow=hidden;fillColor=none;top=0;left=0;bottom=0;right=0;pointerEvents=1;fontSize=9;" vertex="1" parent="uiWN8VyQoNOUGCsHgGrA-17">
          <mxGeometry x="73" width="47" height="40" as="geometry">
            <mxRectangle width="47" height="40" as="alternateBounds" />
          </mxGeometry>
        </mxCell>
        <mxCell id="uiWN8VyQoNOUGCsHgGrA-21" value="" style="shape=tableRow;horizontal=0;startSize=0;swimlaneHead=0;swimlaneBody=0;strokeColor=inherit;top=0;left=0;bottom=0;right=0;collapsible=0;dropTarget=0;fillColor=none;points=[[0,0.5],[1,0.5]];portConstraint=eastwest;fontSize=16;" vertex="1" parent="uiWN8VyQoNOUGCsHgGrA-16">
          <mxGeometry y="40" width="120" height="40" as="geometry" />
        </mxCell>
        <mxCell id="uiWN8VyQoNOUGCsHgGrA-22" value="Race Number" style="shape=partialRectangle;html=1;whiteSpace=wrap;connectable=0;strokeColor=inherit;overflow=hidden;fillColor=none;top=0;left=0;bottom=0;right=0;pointerEvents=1;fontSize=9;" vertex="1" parent="uiWN8VyQoNOUGCsHgGrA-21">
          <mxGeometry width="73" height="40" as="geometry">
            <mxRectangle width="73" height="40" as="alternateBounds" />
          </mxGeometry>
        </mxCell>
        <mxCell id="uiWN8VyQoNOUGCsHgGrA-23" value="5" style="shape=partialRectangle;html=1;whiteSpace=wrap;connectable=0;strokeColor=inherit;overflow=hidden;fillColor=none;top=0;left=0;bottom=0;right=0;pointerEvents=1;fontSize=9;" vertex="1" parent="uiWN8VyQoNOUGCsHgGrA-21">
          <mxGeometry x="73" width="47" height="40" as="geometry">
            <mxRectangle width="47" height="40" as="alternateBounds" />
          </mxGeometry>
        </mxCell>
        <mxCell id="uiWN8VyQoNOUGCsHgGrA-25" value="" style="shape=tableRow;horizontal=0;startSize=0;swimlaneHead=0;swimlaneBody=0;strokeColor=inherit;top=0;left=0;bottom=0;right=0;collapsible=0;dropTarget=0;fillColor=none;points=[[0,0.5],[1,0.5]];portConstraint=eastwest;fontSize=16;" vertex="1" parent="uiWN8VyQoNOUGCsHgGrA-16">
          <mxGeometry y="80" width="120" height="40" as="geometry" />
        </mxCell>
        <mxCell id="uiWN8VyQoNOUGCsHgGrA-26" value="Horse Number" style="shape=partialRectangle;html=1;whiteSpace=wrap;connectable=0;strokeColor=inherit;overflow=hidden;fillColor=none;top=0;left=0;bottom=0;right=0;pointerEvents=1;fontSize=9;" vertex="1" parent="uiWN8VyQoNOUGCsHgGrA-25">
          <mxGeometry width="73" height="40" as="geometry">
            <mxRectangle width="73" height="40" as="alternateBounds" />
          </mxGeometry>
        </mxCell>
        <mxCell id="uiWN8VyQoNOUGCsHgGrA-27" value="12" style="shape=partialRectangle;html=1;whiteSpace=wrap;connectable=0;strokeColor=inherit;overflow=hidden;fillColor=none;top=0;left=0;bottom=0;right=0;pointerEvents=1;fontSize=9;" vertex="1" parent="uiWN8VyQoNOUGCsHgGrA-25">
          <mxGeometry x="73" width="47" height="40" as="geometry">
            <mxRectangle width="47" height="40" as="alternateBounds" />
          </mxGeometry>
        </mxCell>
        <mxCell id="uiWN8VyQoNOUGCsHgGrA-29" value="" style="shape=image;verticalLabelPosition=bottom;labelBackgroundColor=default;verticalAlign=top;imageAspect=0;image=data:image/png,iVBORw0KGgoAAAANSUhEUgAAAJYAAAHCCAYAAAANaTC3AAAAAXNSR0IArs4c6QAAAARnQU1BAACxjwv8YQUAAAAJcEhZcwAAD2EAAA9hAag/p2kAAEhSSURBVHhe7d0HuG1XUQfw2DtFBSFKF5AuEEAQpCMQkK7ShVBCLwEkhCoI0iGhKEi1gDQBCVIEhSCIvSsWFHtBURADqOj8wlt4ODnn3VPWOmevdWe+b7578/LeKXvPnvKf/8w6JiUlJSUlJSUlJSUlJSUlJSUlJSUlJSUlJSUlJSUlJSUlJSVlFPny0K8K/brQr/AHKSnbyvlDjw/9gdDHhD449Lah3xz6paEpKWvL14beJfTZoa8MfV3oG0JPD31G6LVD/Z2UlLXkEqGPDH1j6JtD3xLKsH469B2hLwm9WehXh6akrCyXD31B6OtD3xb6M6GPDv2J0J8MfVPoC0OvEvpFoSkpK8kVQ3koBvXk0O8MlcB/R+hLQ98ayrgYm1wsJWUluW7o00J/PPT5oUJjkW8P/dHQYnj3Cr1waErKQvni0C/73K/H3ChUHvXuUMZ12dAiQt9NQl8dKgdjZCeEni80JeVsArP6ks/9eswtQ0uO9bzQbwudFXDD7ULlWb8Z+muh1w/9ytCUlC8QHosSofBVob8Y+mOhFwmdF8Z159APhPp77wkVFhOGSDmbFMO6QehrQ38hlFf61tBFAm64Q+hPhf5uKIzrjqElpKaknCUFOpCgMyieCI6lKlwmjOgeobAu/0bovFZoovMpZ5MLhj43VHhjWDcPLd5skfh/Nw49LVQ1KSTCuORtKSmfF0n4U0IZFrzqB0PPGXqQfGOo/OwJoYzs9qFfH5qS8nn53tDfCWVYLw69VOiqIkeDc70/9NTQK4em90o5Sy4e+orQt4fCrG4RerRwOCsXC5XI/3zor4f+Uqh2EHzsAqGoOKu+Vspggn/10NCfC9V81pQ+R+hBogDg3e4fCplXAIAkfiXUawmR3xcqb1MUnDdU6E1DO0QiXwKSnhH6xFDV3qqih/iA0JeF8ly8ltCIHfH0UIYFiIWFgSh4s2uEMspzhSZkMbB8Q+jjQ+FZPA8Ptg4AyusxTo1sOdevhjJUr3PPUOFVHxKyf9NQxoZUCL5gaAwZhsZTpkcbSIQ1XuVFoYwLlOBmr3uTeS9AqlAomWcscq3vDmVccjK4F0M8T6gQie91YugpoQ8K9feuGqrhzbhL+ymlUzl36ONCoesYpE8KBSusK4wRHYdnYjyMlh4bymvNc+qFQu/j7/9wKKNG0/H+PJ4cTrUJc0vCYafCg7w8VP8Qws77bDpcwZjmoQfeZxlSzyBxwXg4OZgw+axQVScj49H82WVCLxeaRtaJ8BxyLSDpU0N/NlS1912h+whHPo9Kkvf7ntBHhP5Q6P1CMTLuE4p54e9kuJyg8CrCjJsHSQeSQuJ5LKHI9M7XhO5TGI5QjdnqM50cit3KwB4b+v2h3xKaBjYBEeKU/LcJVc2Z0BECJd54V+AD5D43jeFNpVoTAn1uHgy88d5QnhXtB5yBiJiV5R7Ejbl06K1DJerPCYW6gwjcpD8OhUO9L1QSDzCdIrlPwv+QUNx8HhYGB+LgdY2tCespOxBhwtOs9Fd5vSbUEy/kYYf+UejfHdHfCEVXZnR6ifsOhcuE1wWLwOA8BL915KcWleb6JUMVESmNhGFIgpXuenmGUz3h7wz989B/Dv2b0H8K/ctQDWl/V8jpIayoJk1za0l5ICig1yAuTCwb45WFUcCPYETaKwxJuGM4DItR/UXof4QyKE885FyPbxX6zNTEWoCHh+KW8braS/hm8kQN8ZQKIvTBhHClfiS0oOqe5F8+8vNDoZ8M/dvQPwjFDD0utGcRHu2eUIjoV8q/5F63Ck3sa0vxdF4hFOZjXpAXKmP0LjbPZfKZcf1L6O+FQt1hQiOIvOpqob43toUqVwpw39BvCk3ZQOA9QE1ApydV2GM4DIrH4q2EiD8M9ef+P6BxxDwEp1+byAP1wVAeWc6VjIo1xFOqxMbqVIa7iCZwqLzKhWVYvBVCn9AoQV808tWTHFT1XSgUZMJzowRhU6zCN0sJkU9J0u8UCjkHGMotgJ1CoN/lUJ5c4YE309jdtA84JUHFAaEAcZd9H+Hv3qG6CKrjTORXEG4dvVg4g09hcQp3fvJOfjc+D5OS0Grkan+Mgu/w0jhfDAf95jqhBjvmvx9jkkOCJlIOEEYlSUUzwUrgrfTQGBM44U9CNW7hU7Ad7IURn1bXAdTg++ko6Cf6XVWcsqagnwgDGrLQcwYlnzJxw6D8mcpPJaTnJ/SN4qWWie/HI0nQYXEa1GCGXAewosip8JJsf+GpwAa/HcqotGQk6e8K1f3XZD6MOYUEXVNaMx1oKl0YIadsJtB0PTCVjsrPGiJNY9AB5Bx8IEHXL9NHO8ztDA+UVk8hCwqT2ZxeIIwKvddC2meGFsBT4xUIyEsxKkg7DCfpI5+7BroJUgYFDCCY98prc0RcCMMIMCpeikEZEkVvkUtpz0jaLesQJkfPp9YVnorHwj0TGpEG8xqFGExQUnvygH0wKpUeWEHiDkp4VOjsuseULxTVI8xLY1q7i1c/1NtyNE89bThGPJWcCkkP65PHQtQDeuaO0INFzgl9h+0hCZpxPJTNaZUMBifIwIADKOGvQpHz/BQGJfHpqVYX1/SuoVpb8tOTQg/V+kt5laFPX9zTxVsBPvX+5FTaNMht87tDpybCzdTyGfmqIsf1pEJkjxy0jQSV2JOl0oNVlZ6f3ApDAU51pdCpCmPSXimzgFMSn821lZti1IoAWkLDY12+oP6fKkYjmWHJqdBdAKAazVMn5Rl4wEfXVtLHnBp3Xr6lHSYCfCzUDAC27bAJPaPS6zIJ7InyNAE/eSvouj+/eujUsRh4kSRZBashrs0yNY8Aoef5RQD5qwcY1WY4KXmVp1zlV2AF1R9+uj9jVD0MZ+rRCS9COa/A41oCMrUHAifNA/xnofLYu4UiTA4lOvLCh0pPI9kX5a1gVZaZSTJ7atOgSBvZ94AYcMBqhR9NTfC0NPF5LJ8RYbKHh3cl8YTbSixJV/XxTryVJ15I8WV7bCiXRbhuGkDXbqypHfrEi1qhVOYtgdAGe4cQTeOHhQobmsp+Yi0ARnmqnoE8HsFgg+KDZzBJMzXsqEAQPieMy4ab7k89EwKxO4VAhD2V3++Hiv2azr1jLFpSynqjZoZjhfupgbq81vVCFRrUfTCT2G2VqIdlFxUQtIyKF3gB5HBsaO/i0E3DDEL8maG+o9J+alUiSAQgraGvSsQi6XbgRFluQSwU3cmmXLEnRv+Pe546rHCQKDZUWuW7CfPaUQxtk62Bs9IC0Xe8ns8J22JcWLhT3V+xVFz0a4ZKGiW2qkBfyloesELvSLCHwrEoKloe+K9D/y2UR5A7bpsgM6zaLSOvhZ0L2/rTUMUUmk1Xws0qx3krs388lZAor7KuusUTuStxw30/84sowvhjsKKPhiImWoArRG7zHf1bmFNtry5SGHZFnnRP0Gy6mfBxMVBnYVSoL/IqT4knuZdNL8tExWeXKAp1YWb4broHknc3TCgEBm/78DBOo12bvM6yfyNSWEfp3nggDPjyWl3cEw1aLlcFqFUjBLrgSvHuYvqMyJvgcUp3bFdAL+jEDi5ww0dCMQrkLjWmklXUqrnawLFcS09WnuWhMPDaBSKv6+9pFhLw17VtAHOewB5RX6GPUd0wVEuKF2ZAwjzoxCGaknaVoaa0zXs1Snlex74K09CbeK1l1xq7hKdyX4RwQxkKrcmLYVMgnCYzwh6P5b/LfvReRHiAs2FbqP48KFiuFrp9IlT3wC4uBiUZ9t8a0nLIWnL3UJ5+ExAZ3LNIfD5eV0HF43pAfO5Jt9QYjgshVHgi9NE84UDSngYsfY+y4cYEskkYXkouZffWx0N5KUbmp1CPCiQ5rikeUgaN97VJHrTIWORZknZh0HcSxjFLJr3uyQ0BimpvqAYZlR4VNkBPhqV3KaRJxCXovgtvxTMxKtCCKhAzw1Mv1GtM1w718lXvz3Ntkp/6PIsM0iS1dKXkibyWFGay4ktoehrXEiY8yXIQrnfKQ5VugFB90VDeQWjwHWBwjEm4k0/9a+h/hjKqT4VK2C0/g7a3CCWMyUg9EHZTCGNRvqfHia+lOhQS/TSAMelURTmOteBptg6bmmB2w6bwwRkR2AB+w9hBA8BOs41G+1F7/a6fyUsxKknuh0MZlt2mNgZa8Y0F65CCVo10YUtfDyPE9plNWCCu+bzXsmyEYancgbruEQhl0sMXqg4hRN+MCodcrkO8lyWUq8gmOYanVQjWzceXQnVRXqO4oO0IYZqy8hjNZGGnzDQqPORUcii7I/y0LFdOIn8Ejlov1PJmMAqGzgBsS960vzd/7RQlqkE93FLl6iVOelTfhQaQyrPcJFgW1F0CvE3j+SBvxxMxIuGMEUm85Xs4U8IVUh7aiFaGnIJX5aH87qktW5ZVs1TuQT0cwMRyjK82lSpXYr2L1hQA07XTDrMMZZ0HjIcr1fjsv/OAm5z2gOhxwrU0pic9w+lLKGklnG4MRFpIscBCn7CWuFDyGtWbhSLAS+/pgunfCWW8jqeRx5TvwdX8rlpVVPACvBR+mGqPcbnQQE/GxSsVg7T6W7jwPbRFhCb4T+2EfV6kEL6PXEiFuk449CALpXC4+QdT9S5vFOoZGLhEf3fS4ktYZagE5wVUVW40JHmTkFbEv5UbCQk8kjWS2BK8jzyO8kBCGe8ihEh8vTdDEc7kE7wPfI3BUMYnjyorvP0bSbNcS0UrB3NzIOq+g7DhKWdg/rul51JtMnyfkedfx6u4VpJyn9E9mTUuBQeDcj2Ed4bLCLe5PzsRHxCu46b74KpDLl1F4klaFUj0OnICrQgnprqpXgdWhsfNKzEgPyXTnm6hj8G4WHqVtPwdeYXEFSmPUQovUHV5FsV2tUdeFSZfXOSRGLb8jAFjOJjqbuW5tHbKg+E7aeSv6rVcO/u0tNjmm9pCLAKmNIA396DIP3cR3rcWF9tFd7PlKryBL6D14UschG2ptrhnp2IxFnuyGItwJkQJZ4zFfzMyCbgciMeRP3kvN4NxWzyCHybvEl4k9N5fvuGCC6s8khLfxfXnPv98CCH+vqdbGBXuQRO82qK/u63wlEIw78IQXLd1knhpgsJJte7zFeNSGVp/5Hry3vJhLauanYOm4obxCkpmT4Z8yxdxkZad0eyG8lIWXciDGJR/Kw9wIfzOA6lo/D8GJfmElwm/LhDP45R5lRvPqeemqBBaahgAI3TDeUCey3u7ibWFp1HB8VoeEPAGT7qqeEA8TCp1D2q53ryez+9aMioPvZySIXcjjEucZyS+iEpRziCZdqN9Sd6DMSl5PZGMgJHwTCVf8m/dRH/mJ0/B+wlrLpKn2b9DtPM6PE8JUVoWDLxm64IhCYU+n89j5VLtUyIYlocQ1wtEAjVf16somlyr0mx2TdwTE9NAXgWW12bA3Q228hLyJB9evoV1KSlVoem2y5uc+K7y4XGEMt6AMblxjFA4hDupzBDtuHh5F+OUtzHQYkiLxMWsLTcJ5Y2FZQYvP6uZpzBU18I1cx3kWEf7jovEghV5pYevnNoKFlJBy7HK9JQ2T7dro3glwxS+EOBR303lqCrzZwyIQblRjMp/S9RVYG6apBNhUI4kHwKCtshtVhVGpAgQlqnKVL5VS4Txksu5Jkbm1v2+cD0PJCzMw2vbtGvnoVRFl0qZ9+167lCcd/HlS3qK/xj6D6EqH3/GLcubbKlz0zSEPbnFI+3TkBYJQy8rmTwMYAoPUA2RIypQXCfXZZNQJXR6WBU51npjN8jT/M7g5LyoynK47gdaGZfKBFVW8uhAAF/QEy8Xgx8JcZLkRQn+lMTnw9niWRgBD6t9tG7ImhcPkIY4g1BVA2kPqqQXic9RoAUPKRqTvIuR8mBgFkWQbomKeQiR93hKIOcPPvKTd9qmr7gPgTfxsDAzuZa2jz/bVBiVsFdaL4wCWr5J/ua1dAq8hkqZus4iQOGc4WSpCj3Mw8nUQtw64rMDIxkVSEVodPM2pSlLrnkoMIPiQP4jfG16jXhQOaAEXmVZcjVVMnReeHRW9qQJf4dVVFQqK9WbkCg/3BRwBA1ICwC+wuy225AVAUIdg5e0WywshFMGy1NpWG8bvlMaiDBlzK1QUVRhIJZNpIRA0ApIY1vOl74hSEeVDe+T286yUtOgJiyefpCISst4lZaSvGhdzpYck9dTJfv32jHb3nj5FARe6wv+J+dSPKVMSOQmy3IdRgBvwuhgHLzEukm8niZvBWOSXNdY6sa4Je3CIY6afHDqm6kPpfAgi2AQ7SgJN8xJONRVWAcw1dP0b1GhrSkACEPLtxWGJUFHCIBX8VpT3k59aIXHYljznksCDBficbBV4UNC0CqJN2PlSRgkQNTNV1nW2K+giDClrcLU3sFsmPRkzmGWRYalXC9JMuAX6Is0uEqeJWTqOGix8Fo8HShgkWdcV7TAFBOAUgUGtkPN1lNKZZk3LN7FTZPL8FhYGWCHg1o8vBUP5d8wSoi4KexaLRYzirhpmv5+8looOCmdiJCnlGdQ2jBCIg92EJ1GHiVZl/TzLAyKB6vVgRCiheWy1pJXlMyndCIMS2sKQGpYgaEAOY/G+iz/xs3WEgKIyolq0nyEaN7QbGRZEQBySOlEhEYhTWXISFR32jxHY5cyLOHJxIxGdovpH4O5hmwZlIa/vRM8a0onwrAwVdFQqL4hIzOcsUzQV5DteBSDDzWJgkXQwFGTylITPDjN55SORFKM6oJNACSFGxlwXSSSerRmjFoJdY1tgIvkgaHIlHZPlOFcXYKUjsTZOrwUo5I3ScadwLEINhCOtG54K9yrdds/q4gCgNEKf/ZO/Huo/M8cQkpHomnMS2GUakjrGaKpzBuWBjUDxKAVMo26tfBWWBeqVAaFDi7HYsw1WkUpOxRoOaDTzdQ35Lks95gVTFB8Kwg7T4LO0mophzE6oY+3AjdI4IVqEERKR2JIF5cK5MCo3ERUlVmP5e/ArezfYoBG3lt4KwK+YEwSdkaMeQG07Y2le+hF7oL3bsBW3w+SDowshqXRrBnM6IQnQCoi3ir9xHUFFmZtE8OCYSkS5HMOJU3pTNCA9eRM7Mid7JSQmPMQ1JQ2jMtWGzfbHggG0MKwIPqMHJ4GcYeVCcHb8PFT9iRyGh5JCwWWBfxEBWZUFpDwYIzKzdbuMecHdmgRCnlPfUte0dCrsKxCzTDYoRitwn03ZGoQFFOBx9IIRrKzfYf6/7AkIbLGoQPzwguacWRMZTMPpkWtmceUHYv8BW4E+LRGAOSAYixhl1epzCTQ5icNMqAN29FQW4Q7nHkcLBQeFaoB2JRORYsGc5RhoanIp9BgGFjJdYTDAlDiSq2zQWYV4QWFX94SSCvfswOiBhs1ZU+iLyh5550KdYYCQv8+FHCqUV0mbxhB7c3LMDGsCgi7sMvI9TBbIPspOxLsBB7LvgT9QmGPQfFUQqP1TC0HGRQB9u3zlDb0MHDeMiGGzsXmZixSbRNot6avVgogVAvH7tSaXKt5EVZBDGjRQqDkXc53ENkwZeKiByifEYLQVICgvBbowUCD6rCVwMIMZMDOYGiQfaszQRqtkP2UHYlZQKg7L8VjublCIpZD6415KM1wKzhZ2VYN0th01D9lIsIr4D5pnSDWaaVYjWlVY2s2ASxMs1txwEMWDK3FbtSUHYrqziQ0INJp8ZJ14VBupSIrvcIWYg+DFZsS9VIoAGCtJ2oZelN2IDwSfrswVA5OkFcZlGhBN54VzFMNb+8L9Rd+tZQwV0tu5WdL405pIKZwlPSoKbAjN9WIPE81u9WlhVihrQotmxF5KrQYBj2LWzGqTOA7EoQ5yTqmghsLjLT3XcO5NSDp9W1S1mCW0wm7wqH3n4cX0qg6Egg3aMHkC8PSj5PXqMRq7FxYJozEiJgTMuyAh5VR3or30pdM6VQYjkZyOeBJoo45ag1Rq4SZQSEFagkxIJ7SvCCjlrQzbDhW7bnElB0JNoJ9nnIpWJWkWWPZ6RRufEuB7POSwq7w51T9M0OdaosC3Yo7n9JYeCO4FKwIXiUE+V1eozJslcsg58mbClcepCAEUywK79/VWTgp/y9uLrKc8MdTYCxInI17SdZbwQqMldFgpwJAVZ9UCATCattoJWWC3qEo103TKOvlVLyGMIh6jMjXElYQehm0qk+CjtfFqOV1EHZH77VsbKc0FAQ+WJU9CxJlHkuj96TQFgzQIiCFckIF2o1ZRKGXCoPOGZLXpbfqUC4RappG2EPeKyfc47C3nHhR3TnrmpfEBDUIC9k3H6gHKYmHYyWBr0PR3GVAiHM4TjyGMSrJsq17rYQHMphhtZGcTpEg/DIwyz0MSIA2krnQochbcKgYlBsqp1GNqcwk0i3xIsm683m8N9JgYSwwLp6TtyqHW6Z0JpBtzV0eqngqochYlemaVuK1jcYDPxmyNg2qsxyPoeF2mbjJvKpD0VhW8UnUi1Eh7LU+4pYXNE3thAveyXtaGmI0Xm6nue3smzSqDkW7xlnTDKpAC5J1XPKWIKjXxQLFTFAF8lA8pEQdVuXPWyP7KY3Ezb13KDQbYa8sKpNjGYRoGQIh64oCeJU+oBAoHCIP+kxpVB2Lm4c3DtUus4AMy4n5LQ824iXxtxg0DwXWQMHxWTScc9i0Uzk21Nk1bqKG7kdDDZrKa0ANaMetGJimaxxQyUMJeaZs0GGwJxxQmUbVqdiwZymtmypZhhlhD0iYeY/7h7YEIeFV2BHgBMYl9AmJ1k5a9ZjSoWgc2//JO7ix2iRoMNonWjZaJkc7AGAbkc+hwRgo5SU/EiqnMsls30MOmXYqSnshTrhR3oMU4EYASUZl/4E5wRZVoLAqn3NokrCnsSyvUgUa48odoR2LHQpAUOwEXkqyjpYi/MmvbN9rwVpgqOb9FARgBeEXe8EcoJ+tB1tTGooqTMjBo0IpFgIZlLYNzMpij1qnb80Ko5KMO8uGdxJ+GZYKkCFnTtW5oMEIgUp8+RRIQfjTkzMPqBdYe6UioxLi9B+Bn97Te5kF1OiWb6V0LBgB8hinSCDJgRQ0drEIDJoak2+R45QeoFyKV/Tetu6hxrTkdKXsSK4d6pCi2a13whLPZWma00drY1aYEt4XMwLz1IkV+FWgjDSqAQRmxaB4JcalAuRBsAbkOTxK7QWwAFDj7lZhm+yxVZmXhFk5SzBlALlcqDD46FDeipfirSTQmAPYojWF58ObAisIs2g4DAvXCuW4xX73lB0L3AqaLa8xsawChCGpzIQmTeaaN1qyjrpcltuqOiXr8DGrG1svC0nZkWBl4jYJQZq9wp/ZQB4LJaU20m141BApbMx7wcbsBbXEP3nqgwjvYaeCkMdTQdmFJlPEbnxtnpVNyLcLFW6NbOn/wcbkdvK8lEHEmYHCkJCnH6eFYuhTj05SXfN0CPiXPe56gN5TqJW0O/gy+38DibCDEWrXAU+FFcqgzAbyJNgFtYTXg9hrXjMqlabtxXZWOSwgZSCxRhENBhtUT5CnwiRQ8j88tGa+Yx02I8IC5akKQ8Lm4pSBhJeAVcmlzONBvP3OsISqmm0UDWs4mLBXjMpEjUq05b6slB0LtBt7AYHPflArstFiDEnwXPCsWrOBXkdeZbKHIQu5hi9yx/qAgppycqgch6fyE4fdkMTLQmvuksJKgOSb6AFf4KofH1rLcFMmIqgpbrRBT8Akg1INyq+EKAS/WiLMAUF5Ko1sGJkGc5L1BhPoOZ6Vqkz1pxoUBg1I8CjA0Fprf7wXlgRvqNpkVEKvodJWwxcpexJgpwO+MQnkUkh8jEsIhHw78LuWYKEyJK8PxbcZ5oTQRNYHE4kyb2EfqNYNiEHCXnIsFVqtZBqoKodTYX4mFB3GFpgk7A0qwhPyHPKewVNVIM4VNkEtDrukXHKuXSNv+1Qow5LX5WHegwrmgCFToYnH0hs0iOpokFrCK1lyK4fD55JbGca4TGjKgGKrsQO2bb3jSVSDci1L9WtRYlCMNZi9LoT9v0MZlUowD0UaUDAKUH3lVvqAJpol0/cLrUX/lZ9dMRT4afDCuNb/hn42FG6WleCAAvnmrfQFPx3Ka2Fq1kymcbp4Jisc5W7yKj8xQ3N5/2DCS8ih7hAqYeepGJbfjXfVYmoWzMocogZ2GYv3u+ZzouyDiTF4ACjvpAqEW1Gbjmvyn4zE427hdDEouJj3dYBAngoxmEDQDZ5KpDFCEfhgSrArG2RqJezaNmjGDkKSqDMqRgzJv2VorfdJmYiYuoGm2ykFVgAvuPFm9mrlPEIc0NUQBlhBtel9MBgQ+VouZEvZg/ASVigyKkxQSbtkWiJ9+dBaFRoDxVWHjeFZyamEQqdUAF0ztxpMTCzjP/FOkHWhiTeBftcyKij6tUIR9hgsLwV4VQlafeRwpJSBhJfA1pSwmxF0w3krOZahhVpeRLWHDYESg3Yj3Go4+2/eshZLImUiYmfoqaGASjkWzEoohC/V4loVeEEVKARK1HlFHktD29h8ymCCpSAUnRZqGFQIxNzEaqiVTHudU0Kh9+YRkfhwungs08w5HziYYCg4dgRQybjcaB4LL8o+0Rph0GvYkWX7jKQdXiXUeh/Jux1XyWUfTMztWbJhIS1vovS33IOx1YIYNJO1bhQFqMxlDpFxGcxQOKQMJLyEFY+24D0zlLcSBkEO/ryGt/Iedr7zhnaEojgLswW74hkTaR9MhEEnyLu5bnppq4AYauVWaDHWHJ0eCgDVczSQoU3kd/tDk8w3mCDSwZRUfyU8yYGwOWu1VbAhtIgYkxALyVcJqgxhWbhdKQMJ0FP/D7yAc8Vbuek4WLX2IgiDjBSSz4iEwE+GmqI2haNXmEeQDCboL0h7QpThCIbFwACVtUKT6ZoTQxmW9+GxhECcdgCp+cEERQcToCieuTyn5FZoLDXbKt7Da9r0Z102hV3xVjyY9k7KYGLrsIRdA1huBbRUCdb0IGAECbvWDcWZh7YzZrldctoHE7mPIVSMAnmVGw5PQpupJaAK3CoDEjwWYwJn8FYW0upNZhgcTORX9k4h8PEgvImwWHPi2GtB1CXoBiUYr0lqIVcVaqws0fbBRO7DQ0G+AaLyHkl2TXFiRdnExzOqBsughEZ0zdH8lImIJR9Kf4blhkPAGVtNsTobms+AYVjYDLArLApzhAmKDigPD5XraKvYyOdQo5oixNlFahufHE645RUZmKT9UqEpg4ncR95TuOZ+Yh7UFIm7ChOnnVHBrTAZIO6O0TUMmzKYODpX6BMCVWkqttprghQH9wrlobwPr8iwMBsYXMqAYuwKyc5YF09iKW1tMYL/uFDJOqPyXgxLGMwWzoDCkzimBMxg+YYw2AL9VgigycirGC8AVpP7AaGZtA8oqDDvCS1j83Kh2tUgsZkPpCAM/lcoAxYGrxSaMqCY2yvTzQwLS7S2B8GaQGnGRsVi+J9QXstm5TykckBxw+FKKjM3GoZ1q9Da4n1QZbRwGBZvBXk3VlZroUjKhETlB1cSBnkRFWHNrXxFhFcAKFqMUGiMTFhEkak1+JoyIblQqDxHGFSpYTO0aKsIrdpDQi7D0husvV05ZUICBC3JtJttZrAFUCncPSaUR2TA2jg1d8GnTESEHwMNwqA1jBTLAPOghRjQkE/JreRYPKNkPmUwcaMl6QBKuRX8CpPTYZYtxNEkLw/VI0RDNuVsyVrKYGIwwhmDwh/DEp5w0FvdbK+L0SDsQvgNwqLQpAwkWAYIdcp9uZUwWDClc4a2EMs9YFhCoT6karB2LzJlz8Kw7hiq5Nd4ZlgYDU8LlXfVFu8nxGo+85AOB7dhJvGrwcTQqQpNr86JDzhYxukfFtpiz6dCgSGX3VfWefOYLd4rZY8iccfYZFiW1ZaBBuV/C745AxL6NLkl74DRPBV1QLFsw3prLAPUYGFQvuUI3hYouFxKoVAwLB7rEqEpg4mWDdRbjuVmqwpBDVgGLbyI5Wl2YGGNMmTLQFqwJ1L2KAzHIZbG5t3oMtousb5OaAuxT8sCEN7Ke8rvah46kDIBYVhOmZC0gxrgSkbp8d3tq2ohvNObQ3lIGJaw6LCAlIGEYTloSYWGe8W4KMNiAC1CIXD03aFyOoRC/PaEGgYThnPrUJtkUGUYFQPTbhEiWxiWtZN6g7yj0frjQrP5PJio+uxnAFRqBlv+gcpi/Ao63sKwnD1oZ7tCwfs40aLGusmUCYkb6mi40iOUuMOXnhoKW2oBN8jdTFhL3OVXPGPKYMJwbOzjqRhWmZRxOBLSXwuPpdpEyWFYjw/NM50HFIZz41BtHN4KfiXfOjm01QiWnRAMGdzg5PvcfzWgMCwNYAbFg8h7gJa3DW3hrYghCoaM2WBNUoKjAwrjuWmo/Qkmc+RXeoXyq1biaF8eC3bGsPQqUwYThsWD2E2lKhSe/F5za9+8mM4RbnnJu4Qmq2FAYVg3DxWa4FfUkSOmlFuJMIvVADdTOOQ4/YDCsCTvVjS60X6CAlr27pwnLZfjIe8amoY1oJQcy0kT8h43W57VElsSCr0Hkp+qMFH3AYVh3SBUXqX5rH8HFb9uaCvRQmJYmtCYpC3ozyl7lpJjaeMg+DEuodBikFYir2JYgFinXpwjNGUwYVhwLPQVC0AcOMl7GVRtlfvI6SDv3hP92YxhymCipaNKQ0VG7jOoKrFmWC1bOowK5GAVt5O/UgYTTejbh7rJOFifPaISbD28FoalCS1xl89ZC9nqfVL2KDyWoQmhyY2GZwFJzRS2uuG49E74krw7XPOqoS1YFCl7FDcU8m4aGWiJ3YB8Z2FHq5EsBusUfL1Jw6oOgkr0fTBhOFYXCU28FeNSIT43tBWDVE71rlAeUvhFTc7x+sGE4ZS9DfjnMCz5lu0vrQzLqu0yTHFG6J1CW+2ISNmTMByhqVSEbjZ18pbpnRZi/MscI+9o4RqGw3lDUwYTByUxJAxSFSGvZYoGLNDCYxn1en6oHKscb5IHBgwoGJx2VakG9QpLiLpJaItqTT6F+mzJmzwL7/3CoSmDCaKd7TIM6lWhxrJ4LQ3iFtUaRB/iLq+D9lu6Jhwn5DCYlBvNsPTwcLL08U4KbdHWYUAIfs7QEQ7fFwrLyhGwwUQeBUtSFYIBJPESa0MPLSgt3s/iNT1JuyJQoSH9iWUNJm40aEFIen1oOZHilNBWZwbyUPI4jAqoP8ghsawBxaSMI95eG1q4UjbCOLCphdiHBRz1Xoz4saGJZQ0oIACj7wZIVWq8lv0KFw9tIajPrwhlVFTR0OJolZQ9i4TaxheeA/LuzEAY031CW1RrKlFnTMvpwA7IhS3OREyZiOC/vzEUk1QCL+9qQR1WbTJi3koCL89yvEry3weVS4YyJkApNWTRYgReBcgrWkYC3pDTodAkm3RQUZlJqnkrI/BCVIuJHYbl3GnvhaqDWfHeUMMVCZQOKKAHXCzVGgReIm/NUW1hPKZ1jPaXk1zRlREMszocVF4SKu+RZwmHeOm1wUsGjD0heWdYjBjX3mruZDoMKoYr3GwehCeRzLdYPlsOG+cVvZ9JbKH3sqEpAwrYwRiYik2eZey+BTcLo+HFoXqGDIvyWpL63EAzqNipwLiEKAZmyX9tUW2CHDS8tXZ4R+EX4p9H+A4qWi6MCkcLgPmC0NrVGs+oMoTwMyjVofeUdwnHWR0OKJrPBizADm446nLtzXsKAqwG5/ioQrEqGBbsDI2nVQM8Zc+CMsyoeC0GxghqisrQjKHigDFJ3hnW6aGo0hcJTRlQcN4h4242A5No16a2CLnoOTwWkFSFKPTylvcIzXA4oBhw4EnkP4wLmOlQgZriSLsHhkLdLdXlGbV37OoyItaKtpOyR+GdoPC8ljCF7YCuXLNR7D0eHvr+UDtJQRs8l5zuRaFXDxUyUwYSHPRHhhqHLxM1oICavCnvIXfjGW1RNmABOwNBmD3UO0xm6YByzVB7HYCY8izLPCwRqdniuUroW0LhZt7L+8DOeDEVo7nHlMEEOo7Ogi/FkwiLzwi1O6uWYJN6Dx7rnaHCobArHKoYW+5DTdmTWOMouTb4IKGWyAMwbQGs5bUQCZ2YbwyMlxJ6hV1MVhM8tfO6lAkI47ll6MtC3XQ3XFhkCLXaLiAF42DwKwn8B0J5R3kdw3p1qH0PKYOJPMsIvrAkFMp/3GyblWsNmRraUBhYEiLPcoiB/qGTX08NzXA4oDh13vQOj1KGTN1wAGatNg82g60zDj1nWMIhiANwyqD1FGtzwlL2LHAkORVcyQGZkmu5lv2h6DQ10HHvAXxFMgQ9fDCU8QqNeGG81rlDUwYThzYZsqDYCMKUqu2eobXyHyg8Gg0evDyLqg6h8W8NbXm+T8qeBHdKqHpeqN1WbjbVP7T3oQY6LtTpT6InqxD1C1GjNcFVpQ41SBR+MBHuLP7nsZ4ZCnOyKca6I6ex1uKpA0N5LYvfVKFCLgIgzyVMtqBIp+xZNKUtTAOQqgrRiFWJrwx1jEkNb4L85wgW8IYEXiKvveO9NMGh9CmDiVCldyf8nRb6oVBYkxsORGUUgMxtJ6cxGnhB1aAWEs8ogQdFPCe01VEsKXsUeBKjsq5bEs+TuOkOWwKY8ihwL0a2qTDg64XyhO8IVRkKiQzMDvqa7aSUiQiDOTH0haFvCmVYAFP4k/lDRvf00G1HuPQPecG3hao+vQ/vKO9ykGZu/xtQrDsSkoRE5DzQgwoRPACDYnAnhG5Dd2E4x4XajYpKo42kES7f8r6JaQ0o8qg7hwJMMT+FKeqmF+NSPW7rtYza3y307aEGWfUpFQuSehVqeq0B5fyhKkTVIYPSNOa1wA8wqNeF2vmwbRsGqRDZUEhEWcYuZWQ8ZostOCkTEEelPDlU3iPPoipFXkuSrb/IALcRhmkhGzapkCgcou/gbQFmc9hiQIFbyYP08QpXS6iCPfFaqjrGty2+xTPdPxTLVP9QvgWgRd3JzTSDinxLyNM0lgNR8AAvxqsY1d8GeiC8kl6litPrQuEZl/6h0zNSBhXtHEwHYUo45L3wqUAQwiHoYFsBujoJVmEgpxMWwRBCZJ6CP7A4jhdvvZx5KIlXvUHPAaY12j0AWDmdcIinxcAYl8Z1yqCizYJCg0rMa0Hj3XQhEtBZw6uAFxiRQVYkQGEX6+EpoduG25SJyhVCrTrSggELuOnAUyHLcrVa1OJzhVoYIo8DzHp9WJpDnlIGE2FOj9BOeEi55NpNN2Xjd0aggquxPcZ7XTpU2JXLeQ+JvKPpclnbgMJo0JexEoQ/0IPeXhm+wAqt5bWEXaQ/nC3vwTNaigv6qJHLpUxMgKGgh3kwU1jkVSDotSo42JaQCC/jEXkw5ytmD3FQ4TUYkP6eG46rxWvxLHCnWl6rhESMCgm8KtSImvnE7CEOKKoztJaXhsKyJNalgazdgzdfa1Ofds/1Q/UleUStJJz8TOQHFZv4AKMMC+vTUIRKEb7FazmrsFYuZOYRydAGQEtFeC58MJ4xmaYDirH800PhWpJ5gGaBIBzGVHMoQm5Xhl1hZ9B5lJ5cNTmgSNJtWuatVIQmqLFAeS7VXM2FaiXfMpZmYQmKjRCscQ33ShlMbhDqKGCMUtWbCrHAAxL8mriTfEtDGo7GkIVc84k+g405KQMJT/KQUD1DORDvpb+n3fOaUOP5tbwWkW/dKlR/ksfiGSX2zmDMrYCDia3ItsjgbCH/8VYMC0TgDOra64m8Hr49w5VrMTDMC6TATOYHEiFK41ijGDouRPFaoAdEwJoL3AgPaC7xoaH6lsDa94QaslWN1nyvlD0LXEnVBpXntcrghRAJGuDVagpiILgBeKoypbj5OPoYrQmgDiLaLDcKhTe9PBQEAeMy8CoHUr3Jj2oKz8RDqRR5SbRmjFaeLHfHDySIgBB5Y2O8h/wH5gTUtBn5GqE1E3kiYb9hqPxOQs+YVYy3CM3Vk4OIm8xrWR6CBfrhUEblZsuFnNvTooEMiHVEsBbTG0J5L17yLqF5kusgYkZQ6W/AAo+KIgEyMNCAfQ0tkmuce8yH4im1mbyvYdj0XAMI7wGwtLHG7geNY+wHVGM5kEUjFwutLZJ5++odrcJjmfSB0Mv3GHlSbQYQY/duJu+kt4f5IKnmRfx06kXtRJ6oBK2aRJ/WCfDeWj8M/DahyT7tXIQ6M4I21mi/yLEKb8vNlmRLuFtMODMua79VhowLSIvDZWEvT5oHb3YuPBLPxHsASgs3XogyPiaRbwUJqDwvGQrjEg4ZM5QexmXRSE77dC7nC9Ur5DkYF8PitTSr0Wx4tFb9vQKg6gRYB8DAdAGg9HqNuee0c7F+23SPAQzsTz1EhoUrr3qD2NfGtooIyVB4C3OFQ9uZDX1I8HHJWuR5KTsWM4m8Ba6WdZCgB14MC7Ul1oQzhmoDoIWryfc0rOV5ugFZLXYuvAfAUr6Ds6WPyMiwIo4PbXnyl5D8gFBGDIqwxUaFKv+zvTmJgp2LcS5n88h5hCSTPao22BZ2aKuQ6HVVigxJuwe2ZjcEI7OSUn8zEfrO5aKhcCUruHkNiLzfkQXPE9pKwBBwNbOJ+FsIiYoKrSYIPXji2NCUjgUhT4UmmReWcOV5D5SbllAA+vK9QssACMPGemXouPuq1DSujgXLU8sHV573wDhlXIwNYbAFcFqEV0RIhKdR3DEe61WhDE7FWGPXV8qeRMIs5wE5uLlmBRkYaKDlMKp8y/QQgJZB6V/K+eBqPKjq0bmJOZzRsWCVOk+HccG25D1+f2JoS6Iej+nkWEYkmQdB4I0hJQJSEQcZXwsWRsoORMhDsZFAu6H6iQ7g5MHkOy1XcesZajnZP8G48Lh4Ld5LWESzBlOkdCqqNWxP+JbtNSaptX54MnlYy92j2jpYGBJ4gC2PqY/JwLEibheaXqtjAY4q991gux8Yl2Qel8pu01Y3V77FKyED4osJh0BbqwJQfRQTQnIrfC1lByJZxkbQ0+M1gKeqNAl+y2RevmWPPJ4+r8WorAnQGRCShcTkcXUuoAAVmQpROFSlGaG3OHfb0y8OEgeAWo+knwiZp0KiHMxcZA7Cdi68g6qQ5+C15F5aPva/t2q7CHW4+vcOBUNI5sv6S4WFY4wdydISX0vZgQAogadyLWGJ58JI0DBuyQBlYPI9Ez9yLh7Le8v9LNbNwzkHEDdR28Wud2wI41w8GWS+dVhivMiAciwhEfyAgWpjdNJsBhAMUOi44+xQm+VAjwnFSm09Qs+4MDFUp5J6uR426jy1OSvGTuXyodB4YcmEj2RamDR10zrnUTAgAyIFet9SpUr0izCsNK4OhWfiuRgTOjO1WYYnsz255U3ltYC0rw2FzPspLAJOWwK3KTsSngkDFIAJ4/JTfw/dBUGwpWgr3Sn0CaHyvDJKduXQlAHEjZTn6CWCAfC4IOMS+tY0F5PbqlLNafmW3yXyyYAYQExXI+PBlSTyzvHR22NckuyWvHXh2BYdnkoo1Go6JXTbg9ZTJiDgB8MQkmh05s+EwrleEYpirN/XEobQUyzT1T6D7YFCZI6QdS6GIYQ9qLgtgUIhYiBGBKoLo5ut1mqLPM98pJP1tZwUDyeF2hWR0rGoDHkJJT/eFFoLnrxkHiMB89QQakHmGUJtbyLcakqj9JRWE5S+5ehaSmORzwBHEQJ5LB4DxsTA9BVNWLvh5YhfodMUdk1hrAY+CvRgAFeu1ZKQmNJYHNQkt3HMCWMyxqVpbOIHxVhCD4awSdCiNTshWixcc8QK6IO3YsjPDs0kvmNhQLyUHEtOZdAUtVjJz8BM3EDnVY0Flcezqi2lSa295PNYT6lwSMC0U9EftGtLGGQ8PBdKMyjA3ivhyZwgZN7fkey72S2QeXsoYFmgB8bsp/0QydnqUErIY1RCIg+FgcAzuaG22QiRsC1sCORA3qUFrRkvTM/QVI/iwWomJ3C0JiOmNBD73AGkeFKMSmPadmaGRUwwC0uQ8cJIuGBoCy+C3aBwYFSwNMWD+cTMtToUB4/Lq+RXZ4RiHMwaFjErqIcI3+LZeLlWYlSfUeGLlf7lY0MzHHYmjEh5D8fSM7T+CMtgNofiSdCIje0zMDe6RQJPVKkM6sxQOBqmq+UmeSJGZyIUogdjFwhzwp7tMfOC7aCXx2v5u9DyFgk8JimQVM+SYVGG5XOmdCSqLpgRLpZ8xkEBBhzmhRFpSmv5UAOpLfacqkY1pRnUx0NtKdReUqGmdCTm/uRNZaeVClGbZ5GYcBY23WhYE1CzhdeSZ/GMci0KepALpnQk9wwFJ/BUtvHJsazcXiY8hxEu4YlRtujnCXuSdvlVSeJ9zpROhLcR0oCgKkLGgi5jFnCZCH9yIB7FhA3AtPYAhkTdgl7eSq6FhOhzpnQiDAJjk6FgNviJ6XCB0GXi31g/aYTMv8GdEiJrei69SGi/PMsB66a3Hxaa0onAhh4cakoHMEo1mw/aWSq30m5hiPjxAExeppbnQqORywFk5Vf0UaEpE5X5RFtYs9lYAxoHC06FcHcQ55wBCU0SfkwE+Q8vB6WvIVil6DNCrd6lzoCFbSkTFEj6vGEBORHsCi2YB8IYXYXIh1VaGtSMwFDGlUJriCEOG3JUqDyoSR4nYaRMTBgULzNvWHp+mA1IfoXZAIlfpcHs9fCn5FnG5XkwoGkNmouczXYc3DAHqiMBtly5lLKhMILZ3l8RoetZoUIggBQXah2Em2GaCbRMDQvC2dU1SICM0/SOsIzdoMCofVp/ypbCS817qiJXDBVuhEGJO/YmY1lVvC4ajXCoz3i1UKP724qiwnolHlQYRDg8GgSSMiHhwQCcqjvJu1F7zed12zSSdobpNRAE5ULbVoc8FmOC7j8o1NKQbEJ3IhgLjwxV1TEuYXBT3hPIQkhkBLY1b3tmoeJBvxDhz5ZnGNaswS8K6ykTESU9VgNPpapjZJtSYZzjI9FWJQJMJdrbeC2fzWuBQBQTuPal+MB+EBZN8AxpYMvylh7EZ9fzY1TaOG4ilsOmxsCbWAWJ0yXhhsyjGW96jWx01r90hIrBDlRplarCQB5331BN6VacsJ2LL4d/LZfAWYLdXDi05QFILQQGhXfl5uGVQ8+h6ZsKAzJ3qDKElqswbxS6CevTawFtDcqi6agIPQSMl8H5M58X2bD7StGX5XrxsZXmuOGYlG6OygXy7EvKDTZ9SnclwsfdQ61r9F2Q9uRF21J/fW8HcmJImEVUzW2ybttDCqTV0jG1o6BgWB5guBncDeYmB4ObdStuBI63rr8uu/OPNUetl1aic/8qIs1bpbdxKl5NZePfTs3QsBHkQyo5jFEhrNYAKi/locPX8tBtsn/BA4yDL6QiHPJeKkItHS0e15vahtPtkAUP5OnW6rA76tOhjMpWFh5LK8T/8/RLgJXH8pVHhHrqXGghRjLKle872eQNhBYTOTyVG1iT8suQ4FnCKyOwV3RdgYP5fCAGFaEHledzLXHFPMxCLcztaLyxSQov4yL58OWkUp7qE6FcsC/N1dsvcGooY2JYPAAjU20xPIbo4shl8MUh3ceFSmzd5KMZWou5PZPGaMgGTxmACq5GC6YITy3/ceKYB846yHXpNBB3HomnUm0K0a6Vz659hOlgK43BVt63G1EZ2XtuKuWMUDmDL+Jp8dSgdAgdjMOFvFyoG8RLMTAX1RPFVbuBZuOEzc+GetpgMv6fVT3ARBfPa7qAJWz6b3nbOij4QWKZRzEqN11vr1YILIJuU2YUy1DGunkWD6rN5LoQD5h74roxLH1NqYcmdTdovC8ANwH2MRDeilHZuKLEnU9wGYIvrhvv6XRBPLFuHmqtUGmC2BogTMj/CWWgXr80ff0bHlBiyu0LnZ5EFZAcokaOJqR7UORVPptpYw9EbbGFhgfncfy8beg6VJpy/TEaSurg+/NYeoaunRyuHHxQ+8FoIr4U+IAxaKqaRPFk+JLc8kFfAnAnybedjkdScZl60Z1npF7Ln8ttlMrexw1wkfyEKZVhBv+fxxIWhGTeUcjyGV1oP2E4/oyxM+5lhYI/M3DqppSQLBH2GrVF4i3p5hF5LgyFdU6d8O99bw+Vz11SBTkqbEwEURh4aBkazz5p8QVUHi6GD+6EKjdCOQtGWHUflNdhgEA8ZbK9U26kRJYBceUmjoVEx30wJsamrcK4VJ4lpxNK/J0nhWqZ8GjwMwwCoCGvA9MRniW8Ln65EbPi4p8WqnynSvdtoYVlAhLgseWaUHOGxdusKtaA+56u9+x3ATt4XdfOtfGTAa7z2jsXT4bcAPWVl0Lid7M1QbdJbF0YXgyDgEFomajChD+hkKF5sgsXijfhzQCMqioh1DSMi8jY5WmMzd8xtWL7i16a12R8Qio0+lKhvJl+nXIdBOK9hEIgZoupmiJCt+/jweF51wEwbQwUGRgXmTUsfCwPnodUJJDLmphe5KEnIT4YGq7kW+w2eeInEE5iXeuDCzuMlKvHsvR+QqyT3b2XC8Vb8miUkfkcjIiByfHKZ2P8qtOPhTI4uxZ4Ov9eM5mnZUS8mZ/wNTmeMN+i0pwVeRsvK8zzsmW95CpiNXfJyeY9rweGF/SQqbY9kKLCZMXT6wlxQ5SxbiDvUdzxpnKQQbrBqiWtFU+53MxFVSAIV0JjWT7GUPwZr2PGjkeAbEvC/T/ewWdWifJq8g9hCAiqLaJa5TVbhb9Z0W/0oPj8vMyi0LxMPOClypu9fu6RlMJ39Z09eL7bpCtC5bynWshxYBEMirv1tM/SNNaVdRNjN8CN956MjaHp6EtY5VLyCR5OGe8Cy9mEPkOmvB2jknuANvxEFfZ9eDtG5jvyWC3DoO8ATIaPaR5vuvV43hg9gDBC38u98SAxtFV4+XsT7tToE2/lg5dcpFaZv60wNCHURRQihBqJO28gd2J0KkgXXogUOs376Q4AdBUhFMNTeS4v2SZvPJp4MIzG85Kgl00eTNd83rBKw5xByT/do0kn7r6E5qv8ROymkmFTK7W3AtcUXkdi7oKrlm4YCgcDbbjwchADnhJ8P42pMzRhHuzRCmqQTzFy+JXPtU4YLLLoc6nMkRA9GAorYR/wOoUHf6H4YG6KpFcIFDbcHIj05PGRGeGBVH9uqoqJ52VQwqLVjoxKWHSKPSiDR5Gf1L4xKmuYnYW0m4QphrjIGKUEXld+JbLwypNeaeTCCg2ehFKFyV9QY3oyLN8DvABKKLiZCoqHYlhG1OVcQiIYg1dWKdbmkGONglRADJt4q0X5n/Cqaa7KLPdInnnQpPbeBSLtCZajQMZVXL4IWGCyrnaBuJEwMwm6/EsCLSy6EYBF1SKPzMhQf1RWx4fWPGXLQwqvWwdiKKJKXnS9eT49QfdFNFEp6+PuosLdSoCJnl6hkAIuMRpgTZs8dfsWFxz6fbNQNwSmJCeRd4EhCh7G6OSWqs8a39NrwMo23Ze1LOfTxfDAC39nhIIy3LPJi6dcZaUkV7b7WaqanvnUQoW8C4lPGOGRhXkeTB9U/qXKgtfV8FreT1FQu1ITXnUVoO4a6IDlTVipOxdPmgTehZd7eLpdfC0dW+169FpFPDSIdrhhAGBwBK+FsGj9ou+JjAjL2zbsg0FU0jXTh5JfYZeAhDS3S3O6C1G2w67ADcJDOdqM1+ot15oXIUZryrFxQFQ3SI7FyHgApEXJ9jbf0cPHqGpDGIU/BpdThOggtD7xtaqoRuQHkGxxXGKrsQuPwQRoiVbvQtx4WJCcC1IvCYZnAR0l9tvyshjlsuR7U/FaHuzSdNZwx+LoTuA62hB6XJ5s5bkcBPUY6a7nkEjkPtgaQiKPDNsS9jE6toUdGEFNoyLaQYXyreHMW21Sbe5dtB+guXAY6C6jAjQKiRLcyeMmKwivparikeVYwEaDoFMr3T0ERvV5VqCoqr31ifpNRa4h1+J6Pc0FTNRJx+ScdNNzBVFNYV0CSuUt8pcp7pwS8oRs+aAIAh9rTfdpKp5cAJ8qSjgsgCnKii+KXtOlOz4iknjfB5PDw2PTzDYMjhZic40CSvUKYdem6oLXfpDArrAHYD6qRLiWhF5HXU+x12QeM4KHKgCpRH4dLvouhFfCIHW95VWKi1qrJychBhcQ7mBZZVoHcs2DCZU455NvKcwILjzGhpwF45QHXocyvCsxoYRnpieokAKGdh0C5wUeAxzVjGZMwqJKigcDpHratRV6qBQlwvYpMCafn+cV7mtjTtsKLNF0k2Rdp0DyPkQInBc3BLZVGJpiPrIctJpxgSF66Fnp3Z0UKrRTn3tqoVz6YRhVJV6YF93uZFhFkOlUg5JJ7AA9NmHRBWBoAFUN3ykLjMoDgs9kJYCwOCWRUjB8AyEqcYCtPHZqHrW6aCGUkMhjeeoxAxgWNsTUF1MI1zA4/UBV4ZQEqIq6w5iEP/mryrsVdXpS4snR8jAjp/z1ZMm39NrkLDhO2BFHO3tmClKbdVBDFBDPD9WzFP7wrKb4OZuJJ0gCbEpG1aIchs5LNEtoRE8xF5eymqj2EBK1mPQDGdWh8FTzokIBQaAxK9t5L8g8TIhhaY8g/NfcDjOqMCrMXe0ycI6cqveuxlYi8eW5uO8yJm/FEdBR913uBbXfZpfn6CK14J1Qp8E2qNRTQ/93LhJhuRTgDo+pLKkQDuFEOEOAVEnoFAHIfQuvjwpjQQnwWZ9yKAB0G2FcaDQGM1WE2g5osxBtVBT5l2rRxQNF1KaT9CpaM9B/k91y1a428e1KGBePBB1GCET0B5zikZvb01/0U2/OsELvRMFtpJAoYVX6f36WTX0pC4RxGc9H9C97Snks83yAPgm9MIn6YQD2MFY8vrPtfFIDe7LQX3pmh+xM5AdaD8IiZF6OZcIH1wngB+/SUGV4dg3oh40eGn0/xuO6aNMYgFABGuxIWUO0JFSLknctHx5LqwcyT/GfMDa1hRhg640v+xIeXJfCVJBlJbb12IvRS7N+ksJz2QsF6IMga1wzKEwC+ZYEv4RInC67CFBzRhHeSMhTLYNj0Io8bPPe2UNodcGhBEI3Fa0IAxkWYjAehqVCZFzYECaSIfWMS2jUFMbjHqGFYfABOdL3X+aNrS1nfAzPIO2hx67WEeAfnGt2rRBcC94lmYfWMyx5mDk/uRgOUu3lHLsWnulouaPvJxXQVzV5w7tve57hoRTuXjjgqaDywiDPxYsxLD+1Mww1wL9AFrr6I+Yi8i7GhBmi/aWKNi10mCGYrURlpLy2VgiAymMJh/AuIRKmowmrx2ifKIIbvndP65OOJjyYo108SL4vrI8Xt/B26kyQyYvQqCpSJQl/6CHvDeW9GJaLztDsUvhoqByM93JDehbFDPozjy38aXkJhfbeW1mQUkEYF/wKloP9AHpgVEIhA/M0W6vNuACqfmrQGs3qsePP454Qqq1V6NwqZeu0DzWDoZWU0KgaRBbEjGBAQFStICokWthhSpmaqTO21UPupbrVviozmYiQihP5pWbzoSLw7VokrPhavBH+uQlribynG7gqmUcgPPOIMjyVpePUpvq0MxgTTfJDOJ48klGhcsun0KJ7GpXrWoy6w7CMkmtUA1B5MSESv0vP0U+hRKgEPMJ+ptZnM13jITEGL1/ErmVceFZC/wj7LroTVRMDc7gSZqoFY26QPIunAlPoP+q3GeYQTqYSEhk4hoKCxKpvFZ9mO2yOoan65JYpexYtDug1EpyzdbAB5FvyE7/ru+17PaJwhtMPXbcFUCgH/grhFo2gxihSMuxNUNwUyboEX+JL8eqBp/vwANou9pMyKNQffc/bh6pogZ5mLrEYaq+ITGkg1wiF+zAongAGtumSXTdbcj170xnoMiMtf1+BAYfiQbWccPzlTiADCbnqDztWWyapxR0IDAh/iWcQYk4O3fToFbOQAEksCgZDJdMowfOlv9zN/8O6kNMJv2hAtugxLAcvocPYTqOyzfypM7HOGldeyY7TZUPwugk7ugqDgnQLV5JsxiWpxrxgHAyDcfGEOgNOtPD/cdGtk5SEgw/8W0h5GlLHIqxY2KHlo63DW62zbYUnAV9Y/6NNZBSNgfI4XsvsnsY4zInBGm1XFJwYKuQ5cEABwUN2sUc9ZTWBU8GBoNaatbzXqsJLyX+Aqc6YBrI6+UtvEk5W4Ay/WwfAkByMyVvxSIxyNg9LGUQkwFoh2jyAUkn7Ks1axmAhic3HQFb4F9QbDACwlK/hPjEq0zG8Fc+YkMAhEZPTWKc8DONadTEawyprxLWGhECGxWvJm+RTwhpDSo90CEV+wxh4GZ5rnWFOFBsLSfC5cO0ZVOZIKWd5JsakLcIwlPar8MHlRTjkqkjUZ/jSptBEyoACaZdUy4+AkKq3o0EMQpoGr3F1lBuDGRaqZd6UcpaUnMemYJiTvqCqUFN6mUjy4U0WatgrZTcqCCFxppTPS/FKqrbCJsVuWLYCiVHBqRiUXMyGQSNX8yh6yiEWRlUMSwVo15ZRfMS/Rcty5VPovvIwST6FjG/aQ0wZVHifEr7kS8VYtHFQT2aFR0JJEfb0D0386Ollop5yNmFYJdnGgzfNAsMS3uahBtvvUJd5NMaFnTlvfCkpZxPeyPSOvEnTeHaHqcFOW2sk9saoJO25WyplJXFGIizK+D3DsvnO4ASjkqiDIeze4rGmvE8+ZWICbhAKGY+2jNYOwBSazos5jHOEIdaUHYuVkzyWlozk3ABFGcPHdEB5QQHO1T8pa4mJFzscypG6vBQPpk1DYVe5mSVlI5Gw41NRrRoDC1o7i2jEKSkri/aOxrNwJ3FnTOtSklNSUlJSUlJSUlJSUlJSUlJSUlJSUlJSUlJSUlJSUlJSUlJSUtaTY475P3XhX2X6V17YAAAAAElFTkSuQmCC;" vertex="1" parent="1">
          <mxGeometry y="5" width="49" height="212" as="geometry" />
        </mxCell>
        <mxCell id="uiWN8VyQoNOUGCsHgGrA-31" value="" style="shape=image;verticalLabelPosition=bottom;labelBackgroundColor=default;verticalAlign=top;imageAspect=0;image=data:image/png,iVBORw0KGgoAAAANSUhEUgAAAJYAAAHCCAYAAAANaTC3AAAAAXNSR0IArs4c6QAAAARnQU1BAACxjwv8YQUAAAAJcEhZcwAAD2EAAA9hAag/p2kAAEhSSURBVHhe7d0HuG1XUQfw2DtFBSFKF5AuEEAQpCMQkK7ShVBCLwEkhCoI0iGhKEi1gDQBCVIEhSCIvSsWFHtBURADqOj8wlt4ODnn3VPWOmevdWe+b7578/LeKXvPnvKf/8w6JiUlJSUlJSUlJSUlJSUlJSUlJSUlJSUlJSUlJSUlJSUlJSVlFPny0K8K/brQr/AHKSnbyvlDjw/9gdDHhD449Lah3xz6paEpKWvL14beJfTZoa8MfV3oG0JPD31G6LVD/Z2UlLXkEqGPDH1j6JtD3xLKsH469B2hLwm9WehXh6akrCyXD31B6OtD3xb6M6GPDv2J0J8MfVPoC0OvEvpFoSkpK8kVQ3koBvXk0O8MlcB/R+hLQ98ayrgYm1wsJWUluW7o00J/PPT5oUJjkW8P/dHQYnj3Cr1waErKQvni0C/73K/H3ChUHvXuUMZ12dAiQt9NQl8dKgdjZCeEni80JeVsArP6ks/9eswtQ0uO9bzQbwudFXDD7ULlWb8Z+muh1w/9ytCUlC8QHosSofBVob8Y+mOhFwmdF8Z159APhPp77wkVFhOGSDmbFMO6QehrQ38hlFf61tBFAm64Q+hPhf5uKIzrjqElpKaknCUFOpCgMyieCI6lKlwmjOgeobAu/0bovFZoovMpZ5MLhj43VHhjWDcPLd5skfh/Nw49LVQ1KSTCuORtKSmfF0n4U0IZFrzqB0PPGXqQfGOo/OwJoYzs9qFfH5qS8nn53tDfCWVYLw69VOiqIkeDc70/9NTQK4em90o5Sy4e+orQt4fCrG4RerRwOCsXC5XI/3zor4f+Uqh2EHzsAqGoOKu+Vspggn/10NCfC9V81pQ+R+hBogDg3e4fCplXAIAkfiXUawmR3xcqb1MUnDdU6E1DO0QiXwKSnhH6xFDV3qqih/iA0JeF8ly8ltCIHfH0UIYFiIWFgSh4s2uEMspzhSZkMbB8Q+jjQ+FZPA8Ptg4AyusxTo1sOdevhjJUr3PPUOFVHxKyf9NQxoZUCL5gaAwZhsZTpkcbSIQ1XuVFoYwLlOBmr3uTeS9AqlAomWcscq3vDmVccjK4F0M8T6gQie91YugpoQ8K9feuGqrhzbhL+ymlUzl36ONCoesYpE8KBSusK4wRHYdnYjyMlh4bymvNc+qFQu/j7/9wKKNG0/H+PJ4cTrUJc0vCYafCg7w8VP8Qws77bDpcwZjmoQfeZxlSzyBxwXg4OZgw+axQVScj49H82WVCLxeaRtaJ8BxyLSDpU0N/NlS1912h+whHPo9Kkvf7ntBHhP5Q6P1CMTLuE4p54e9kuJyg8CrCjJsHSQeSQuJ5LKHI9M7XhO5TGI5QjdnqM50cit3KwB4b+v2h3xKaBjYBEeKU/LcJVc2Z0BECJd54V+AD5D43jeFNpVoTAn1uHgy88d5QnhXtB5yBiJiV5R7Ejbl06K1DJerPCYW6gwjcpD8OhUO9L1QSDzCdIrlPwv+QUNx8HhYGB+LgdY2tCespOxBhwtOs9Fd5vSbUEy/kYYf+UejfHdHfCEVXZnR6ifsOhcuE1wWLwOA8BL915KcWleb6JUMVESmNhGFIgpXuenmGUz3h7wz989B/Dv2b0H8K/ctQDWl/V8jpIayoJk1za0l5ICig1yAuTCwb45WFUcCPYETaKwxJuGM4DItR/UXof4QyKE885FyPbxX6zNTEWoCHh+KW8braS/hm8kQN8ZQKIvTBhHClfiS0oOqe5F8+8vNDoZ8M/dvQPwjFDD0utGcRHu2eUIjoV8q/5F63Ck3sa0vxdF4hFOZjXpAXKmP0LjbPZfKZcf1L6O+FQt1hQiOIvOpqob43toUqVwpw39BvCk3ZQOA9QE1ApydV2GM4DIrH4q2EiD8M9ef+P6BxxDwEp1+byAP1wVAeWc6VjIo1xFOqxMbqVIa7iCZwqLzKhWVYvBVCn9AoQV808tWTHFT1XSgUZMJzowRhU6zCN0sJkU9J0u8UCjkHGMotgJ1CoN/lUJ5c4YE309jdtA84JUHFAaEAcZd9H+Hv3qG6CKrjTORXEG4dvVg4g09hcQp3fvJOfjc+D5OS0Grkan+Mgu/w0jhfDAf95jqhBjvmvx9jkkOCJlIOEEYlSUUzwUrgrfTQGBM44U9CNW7hU7Ad7IURn1bXAdTg++ko6Cf6XVWcsqagnwgDGrLQcwYlnzJxw6D8mcpPJaTnJ/SN4qWWie/HI0nQYXEa1GCGXAewosip8JJsf+GpwAa/HcqotGQk6e8K1f3XZD6MOYUEXVNaMx1oKl0YIadsJtB0PTCVjsrPGiJNY9AB5Bx8IEHXL9NHO8ztDA+UVk8hCwqT2ZxeIIwKvddC2meGFsBT4xUIyEsxKkg7DCfpI5+7BroJUgYFDCCY98prc0RcCMMIMCpeikEZEkVvkUtpz0jaLesQJkfPp9YVnorHwj0TGpEG8xqFGExQUnvygH0wKpUeWEHiDkp4VOjsuseULxTVI8xLY1q7i1c/1NtyNE89bThGPJWcCkkP65PHQtQDeuaO0INFzgl9h+0hCZpxPJTNaZUMBifIwIADKOGvQpHz/BQGJfHpqVYX1/SuoVpb8tOTQg/V+kt5laFPX9zTxVsBPvX+5FTaNMht87tDpybCzdTyGfmqIsf1pEJkjxy0jQSV2JOl0oNVlZ6f3ApDAU51pdCpCmPSXimzgFMSn821lZti1IoAWkLDY12+oP6fKkYjmWHJqdBdAKAazVMn5Rl4wEfXVtLHnBp3Xr6lHSYCfCzUDAC27bAJPaPS6zIJ7InyNAE/eSvouj+/eujUsRh4kSRZBashrs0yNY8Aoef5RQD5qwcY1WY4KXmVp1zlV2AF1R9+uj9jVD0MZ+rRCS9COa/A41oCMrUHAifNA/xnofLYu4UiTA4lOvLCh0pPI9kX5a1gVZaZSTJ7atOgSBvZ94AYcMBqhR9NTfC0NPF5LJ8RYbKHh3cl8YTbSixJV/XxTryVJ15I8WV7bCiXRbhuGkDXbqypHfrEi1qhVOYtgdAGe4cQTeOHhQobmsp+Yi0ARnmqnoE8HsFgg+KDZzBJMzXsqEAQPieMy4ab7k89EwKxO4VAhD2V3++Hiv2azr1jLFpSynqjZoZjhfupgbq81vVCFRrUfTCT2G2VqIdlFxUQtIyKF3gB5HBsaO/i0E3DDEL8maG+o9J+alUiSAQgraGvSsQi6XbgRFluQSwU3cmmXLEnRv+Pe546rHCQKDZUWuW7CfPaUQxtk62Bs9IC0Xe8ns8J22JcWLhT3V+xVFz0a4ZKGiW2qkBfyloesELvSLCHwrEoKloe+K9D/y2UR5A7bpsgM6zaLSOvhZ0L2/rTUMUUmk1Xws0qx3krs388lZAor7KuusUTuStxw30/84sowvhjsKKPhiImWoArRG7zHf1bmFNtry5SGHZFnnRP0Gy6mfBxMVBnYVSoL/IqT4knuZdNL8tExWeXKAp1YWb4broHknc3TCgEBm/78DBOo12bvM6yfyNSWEfp3nggDPjyWl3cEw1aLlcFqFUjBLrgSvHuYvqMyJvgcUp3bFdAL+jEDi5ww0dCMQrkLjWmklXUqrnawLFcS09WnuWhMPDaBSKv6+9pFhLw17VtAHOewB5RX6GPUd0wVEuKF2ZAwjzoxCGaknaVoaa0zXs1Snlex74K09CbeK1l1xq7hKdyX4RwQxkKrcmLYVMgnCYzwh6P5b/LfvReRHiAs2FbqP48KFiuFrp9IlT3wC4uBiUZ9t8a0nLIWnL3UJ5+ExAZ3LNIfD5eV0HF43pAfO5Jt9QYjgshVHgi9NE84UDSngYsfY+y4cYEskkYXkouZffWx0N5KUbmp1CPCiQ5rikeUgaN97VJHrTIWORZknZh0HcSxjFLJr3uyQ0BimpvqAYZlR4VNkBPhqV3KaRJxCXovgtvxTMxKtCCKhAzw1Mv1GtM1w718lXvz3Ntkp/6PIsM0iS1dKXkibyWFGay4ktoehrXEiY8yXIQrnfKQ5VugFB90VDeQWjwHWBwjEm4k0/9a+h/hjKqT4VK2C0/g7a3CCWMyUg9EHZTCGNRvqfHia+lOhQS/TSAMelURTmOteBptg6bmmB2w6bwwRkR2AB+w9hBA8BOs41G+1F7/a6fyUsxKknuh0MZlt2mNgZa8Y0F65CCVo10YUtfDyPE9plNWCCu+bzXsmyEYancgbruEQhl0sMXqg4hRN+MCodcrkO8lyWUq8gmOYanVQjWzceXQnVRXqO4oO0IYZqy8hjNZGGnzDQqPORUcii7I/y0LFdOIn8Ejlov1PJmMAqGzgBsS960vzd/7RQlqkE93FLl6iVOelTfhQaQyrPcJFgW1F0CvE3j+SBvxxMxIuGMEUm85Xs4U8IVUh7aiFaGnIJX5aH87qktW5ZVs1TuQT0cwMRyjK82lSpXYr2L1hQA07XTDrMMZZ0HjIcr1fjsv/OAm5z2gOhxwrU0pic9w+lLKGklnG4MRFpIscBCn7CWuFDyGtWbhSLAS+/pgunfCWW8jqeRx5TvwdX8rlpVVPACvBR+mGqPcbnQQE/GxSsVg7T6W7jwPbRFhCb4T+2EfV6kEL6PXEiFuk449CALpXC4+QdT9S5vFOoZGLhEf3fS4ktYZagE5wVUVW40JHmTkFbEv5UbCQk8kjWS2BK8jzyO8kBCGe8ihEh8vTdDEc7kE7wPfI3BUMYnjyorvP0bSbNcS0UrB3NzIOq+g7DhKWdg/rul51JtMnyfkedfx6u4VpJyn9E9mTUuBQeDcj2Ed4bLCLe5PzsRHxCu46b74KpDLl1F4klaFUj0OnICrQgnprqpXgdWhsfNKzEgPyXTnm6hj8G4WHqVtPwdeYXEFSmPUQovUHV5FsV2tUdeFSZfXOSRGLb8jAFjOJjqbuW5tHbKg+E7aeSv6rVcO/u0tNjmm9pCLAKmNIA396DIP3cR3rcWF9tFd7PlKryBL6D14UschG2ptrhnp2IxFnuyGItwJkQJZ4zFfzMyCbgciMeRP3kvN4NxWzyCHybvEl4k9N5fvuGCC6s8khLfxfXnPv98CCH+vqdbGBXuQRO82qK/u63wlEIw78IQXLd1knhpgsJJte7zFeNSGVp/5Hry3vJhLauanYOm4obxCkpmT4Z8yxdxkZad0eyG8lIWXciDGJR/Kw9wIfzOA6lo/D8GJfmElwm/LhDP45R5lRvPqeemqBBaahgAI3TDeUCey3u7ibWFp1HB8VoeEPAGT7qqeEA8TCp1D2q53ryez+9aMioPvZySIXcjjEucZyS+iEpRziCZdqN9Sd6DMSl5PZGMgJHwTCVf8m/dRH/mJ0/B+wlrLpKn2b9DtPM6PE8JUVoWDLxm64IhCYU+n89j5VLtUyIYlocQ1wtEAjVf16somlyr0mx2TdwTE9NAXgWW12bA3Q228hLyJB9evoV1KSlVoem2y5uc+K7y4XGEMt6AMblxjFA4hDupzBDtuHh5F+OUtzHQYkiLxMWsLTcJ5Y2FZQYvP6uZpzBU18I1cx3kWEf7jovEghV5pYevnNoKFlJBy7HK9JQ2T7dro3glwxS+EOBR303lqCrzZwyIQblRjMp/S9RVYG6apBNhUI4kHwKCtshtVhVGpAgQlqnKVL5VS4Txksu5Jkbm1v2+cD0PJCzMw2vbtGvnoVRFl0qZ9+167lCcd/HlS3qK/xj6D6EqH3/GLcubbKlz0zSEPbnFI+3TkBYJQy8rmTwMYAoPUA2RIypQXCfXZZNQJXR6WBU51npjN8jT/M7g5LyoynK47gdaGZfKBFVW8uhAAF/QEy8Xgx8JcZLkRQn+lMTnw9niWRgBD6t9tG7ImhcPkIY4g1BVA2kPqqQXic9RoAUPKRqTvIuR8mBgFkWQbomKeQiR93hKIOcPPvKTd9qmr7gPgTfxsDAzuZa2jz/bVBiVsFdaL4wCWr5J/ua1dAq8hkqZus4iQOGc4WSpCj3Mw8nUQtw64rMDIxkVSEVodPM2pSlLrnkoMIPiQP4jfG16jXhQOaAEXmVZcjVVMnReeHRW9qQJf4dVVFQqK9WbkCg/3BRwBA1ICwC+wuy225AVAUIdg5e0WywshFMGy1NpWG8bvlMaiDBlzK1QUVRhIJZNpIRA0ApIY1vOl74hSEeVDe+T286yUtOgJiyefpCISst4lZaSvGhdzpYck9dTJfv32jHb3nj5FARe6wv+J+dSPKVMSOQmy3IdRgBvwuhgHLzEukm8niZvBWOSXNdY6sa4Je3CIY6afHDqm6kPpfAgi2AQ7SgJN8xJONRVWAcw1dP0b1GhrSkACEPLtxWGJUFHCIBX8VpT3k59aIXHYljznksCDBficbBV4UNC0CqJN2PlSRgkQNTNV1nW2K+giDClrcLU3sFsmPRkzmGWRYalXC9JMuAX6Is0uEqeJWTqOGix8Fo8HShgkWdcV7TAFBOAUgUGtkPN1lNKZZk3LN7FTZPL8FhYGWCHg1o8vBUP5d8wSoi4KexaLRYzirhpmv5+8looOCmdiJCnlGdQ2jBCIg92EJ1GHiVZl/TzLAyKB6vVgRCiheWy1pJXlMyndCIMS2sKQGpYgaEAOY/G+iz/xs3WEgKIyolq0nyEaN7QbGRZEQBySOlEhEYhTWXISFR32jxHY5cyLOHJxIxGdovpH4O5hmwZlIa/vRM8a0onwrAwVdFQqL4hIzOcsUzQV5DteBSDDzWJgkXQwFGTylITPDjN55SORFKM6oJNACSFGxlwXSSSerRmjFoJdY1tgIvkgaHIlHZPlOFcXYKUjsTZOrwUo5I3ScadwLEINhCOtG54K9yrdds/q4gCgNEKf/ZO/Huo/M8cQkpHomnMS2GUakjrGaKpzBuWBjUDxKAVMo26tfBWWBeqVAaFDi7HYsw1WkUpOxRoOaDTzdQ35Lks95gVTFB8Kwg7T4LO0mophzE6oY+3AjdI4IVqEERKR2JIF5cK5MCo3ERUlVmP5e/ArezfYoBG3lt4KwK+YEwSdkaMeQG07Y2le+hF7oL3bsBW3w+SDowshqXRrBnM6IQnQCoi3ir9xHUFFmZtE8OCYSkS5HMOJU3pTNCA9eRM7Mid7JSQmPMQ1JQ2jMtWGzfbHggG0MKwIPqMHJ4GcYeVCcHb8PFT9iRyGh5JCwWWBfxEBWZUFpDwYIzKzdbuMecHdmgRCnlPfUte0dCrsKxCzTDYoRitwn03ZGoQFFOBx9IIRrKzfYf6/7AkIbLGoQPzwguacWRMZTMPpkWtmceUHYv8BW4E+LRGAOSAYixhl1epzCTQ5icNMqAN29FQW4Q7nHkcLBQeFaoB2JRORYsGc5RhoanIp9BgGFjJdYTDAlDiSq2zQWYV4QWFX94SSCvfswOiBhs1ZU+iLyh5550KdYYCQv8+FHCqUV0mbxhB7c3LMDGsCgi7sMvI9TBbIPspOxLsBB7LvgT9QmGPQfFUQqP1TC0HGRQB9u3zlDb0MHDeMiGGzsXmZixSbRNot6avVgogVAvH7tSaXKt5EVZBDGjRQqDkXc53ENkwZeKiByifEYLQVICgvBbowUCD6rCVwMIMZMDOYGiQfaszQRqtkP2UHYlZQKg7L8VjublCIpZD6415KM1wKzhZ2VYN0th01D9lIsIr4D5pnSDWaaVYjWlVY2s2ASxMs1txwEMWDK3FbtSUHYrqziQ0INJp8ZJ14VBupSIrvcIWYg+DFZsS9VIoAGCtJ2oZelN2IDwSfrswVA5OkFcZlGhBN54VzFMNb+8L9Rd+tZQwV0tu5WdL405pIKZwlPSoKbAjN9WIPE81u9WlhVihrQotmxF5KrQYBj2LWzGqTOA7EoQ5yTqmghsLjLT3XcO5NSDp9W1S1mCW0wm7wqH3n4cX0qg6Egg3aMHkC8PSj5PXqMRq7FxYJozEiJgTMuyAh5VR3or30pdM6VQYjkZyOeBJoo45ag1Rq4SZQSEFagkxIJ7SvCCjlrQzbDhW7bnElB0JNoJ9nnIpWJWkWWPZ6RRufEuB7POSwq7w51T9M0OdaosC3Yo7n9JYeCO4FKwIXiUE+V1eozJslcsg58mbClcepCAEUywK79/VWTgp/y9uLrKc8MdTYCxInI17SdZbwQqMldFgpwJAVZ9UCATCattoJWWC3qEo103TKOvlVLyGMIh6jMjXElYQehm0qk+CjtfFqOV1EHZH77VsbKc0FAQ+WJU9CxJlHkuj96TQFgzQIiCFckIF2o1ZRKGXCoPOGZLXpbfqUC4RappG2EPeKyfc47C3nHhR3TnrmpfEBDUIC9k3H6gHKYmHYyWBr0PR3GVAiHM4TjyGMSrJsq17rYQHMphhtZGcTpEg/DIwyz0MSIA2krnQochbcKgYlBsqp1GNqcwk0i3xIsm683m8N9JgYSwwLp6TtyqHW6Z0JpBtzV0eqngqochYlemaVuK1jcYDPxmyNg2qsxyPoeF2mbjJvKpD0VhW8UnUi1Eh7LU+4pYXNE3thAveyXtaGmI0Xm6nue3smzSqDkW7xlnTDKpAC5J1XPKWIKjXxQLFTFAF8lA8pEQdVuXPWyP7KY3Ezb13KDQbYa8sKpNjGYRoGQIh64oCeJU+oBAoHCIP+kxpVB2Lm4c3DtUus4AMy4n5LQ824iXxtxg0DwXWQMHxWTScc9i0Uzk21Nk1bqKG7kdDDZrKa0ANaMetGJimaxxQyUMJeaZs0GGwJxxQmUbVqdiwZymtmypZhhlhD0iYeY/7h7YEIeFV2BHgBMYl9AmJ1k5a9ZjSoWgc2//JO7ix2iRoMNonWjZaJkc7AGAbkc+hwRgo5SU/EiqnMsls30MOmXYqSnshTrhR3oMU4EYASUZl/4E5wRZVoLAqn3NokrCnsSyvUgUa48odoR2LHQpAUOwEXkqyjpYi/MmvbN9rwVpgqOb9FARgBeEXe8EcoJ+tB1tTGooqTMjBo0IpFgIZlLYNzMpij1qnb80Ko5KMO8uGdxJ+GZYKkCFnTtW5oMEIgUp8+RRIQfjTkzMPqBdYe6UioxLi9B+Bn97Te5kF1OiWb6V0LBgB8hinSCDJgRQ0drEIDJoak2+R45QeoFyKV/Tetu6hxrTkdKXsSK4d6pCi2a13whLPZWma00drY1aYEt4XMwLz1IkV+FWgjDSqAQRmxaB4JcalAuRBsAbkOTxK7QWwAFDj7lZhm+yxVZmXhFk5SzBlALlcqDD46FDeipfirSTQmAPYojWF58ObAisIs2g4DAvXCuW4xX73lB0L3AqaLa8xsawChCGpzIQmTeaaN1qyjrpcltuqOiXr8DGrG1svC0nZkWBl4jYJQZq9wp/ZQB4LJaU20m141BApbMx7wcbsBbXEP3nqgwjvYaeCkMdTQdmFJlPEbnxtnpVNyLcLFW6NbOn/wcbkdvK8lEHEmYHCkJCnH6eFYuhTj05SXfN0CPiXPe56gN5TqJW0O/gy+38DibCDEWrXAU+FFcqgzAbyJNgFtYTXg9hrXjMqlabtxXZWOSwgZSCxRhENBhtUT5CnwiRQ8j88tGa+Yx02I8IC5akKQ8Lm4pSBhJeAVcmlzONBvP3OsISqmm0UDWs4mLBXjMpEjUq05b6slB0LtBt7AYHPflArstFiDEnwXPCsWrOBXkdeZbKHIQu5hi9yx/qAgppycqgch6fyE4fdkMTLQmvuksJKgOSb6AFf4KofH1rLcFMmIqgpbrRBT8Akg1INyq+EKAS/WiLMAUF5Ko1sGJkGc5L1BhPoOZ6Vqkz1pxoUBg1I8CjA0Fprf7wXlgRvqNpkVEKvodJWwxcpexJgpwO+MQnkUkh8jEsIhHw78LuWYKEyJK8PxbcZ5oTQRNYHE4kyb2EfqNYNiEHCXnIsFVqtZBqoKodTYX4mFB3GFpgk7A0qwhPyHPKewVNVIM4VNkEtDrukXHKuXSNv+1Qow5LX5WHegwrmgCFToYnH0hs0iOpokFrCK1lyK4fD55JbGca4TGjKgGKrsQO2bb3jSVSDci1L9WtRYlCMNZi9LoT9v0MZlUowD0UaUDAKUH3lVvqAJpol0/cLrUX/lZ9dMRT4afDCuNb/hn42FG6WleCAAvnmrfQFPx3Ka2Fq1kymcbp4Jisc5W7yKj8xQ3N5/2DCS8ih7hAqYeepGJbfjXfVYmoWzMocogZ2GYv3u+ZzouyDiTF4ACjvpAqEW1Gbjmvyn4zE427hdDEouJj3dYBAngoxmEDQDZ5KpDFCEfhgSrArG2RqJezaNmjGDkKSqDMqRgzJv2VorfdJmYiYuoGm2ykFVgAvuPFm9mrlPEIc0NUQBlhBtel9MBgQ+VouZEvZg/ASVigyKkxQSbtkWiJ9+dBaFRoDxVWHjeFZyamEQqdUAF0ztxpMTCzjP/FOkHWhiTeBftcyKij6tUIR9hgsLwV4VQlafeRwpJSBhJfA1pSwmxF0w3krOZahhVpeRLWHDYESg3Yj3Go4+2/eshZLImUiYmfoqaGASjkWzEoohC/V4loVeEEVKARK1HlFHktD29h8ymCCpSAUnRZqGFQIxNzEaqiVTHudU0Kh9+YRkfhwungs08w5HziYYCg4dgRQybjcaB4LL8o+0Rph0GvYkWX7jKQdXiXUeh/Jux1XyWUfTMztWbJhIS1vovS33IOx1YIYNJO1bhQFqMxlDpFxGcxQOKQMJLyEFY+24D0zlLcSBkEO/ryGt/Iedr7zhnaEojgLswW74hkTaR9MhEEnyLu5bnppq4AYauVWaDHWHJ0eCgDVczSQoU3kd/tDk8w3mCDSwZRUfyU8yYGwOWu1VbAhtIgYkxALyVcJqgxhWbhdKQMJ0FP/D7yAc8Vbuek4WLX2IgiDjBSSz4iEwE+GmqI2haNXmEeQDCboL0h7QpThCIbFwACVtUKT6ZoTQxmW9+GxhECcdgCp+cEERQcToCieuTyn5FZoLDXbKt7Da9r0Z102hV3xVjyY9k7KYGLrsIRdA1huBbRUCdb0IGAECbvWDcWZh7YzZrldctoHE7mPIVSMAnmVGw5PQpupJaAK3CoDEjwWYwJn8FYW0upNZhgcTORX9k4h8PEgvImwWHPi2GtB1CXoBiUYr0lqIVcVaqws0fbBRO7DQ0G+AaLyHkl2TXFiRdnExzOqBsughEZ0zdH8lImIJR9Kf4blhkPAGVtNsTobms+AYVjYDLArLApzhAmKDigPD5XraKvYyOdQo5oixNlFahufHE645RUZmKT9UqEpg4ncR95TuOZ+Yh7UFIm7ChOnnVHBrTAZIO6O0TUMmzKYODpX6BMCVWkqttprghQH9wrlobwPr8iwMBsYXMqAYuwKyc5YF09iKW1tMYL/uFDJOqPyXgxLGMwWzoDCkzimBMxg+YYw2AL9VgigycirGC8AVpP7AaGZtA8oqDDvCS1j83Kh2tUgsZkPpCAM/lcoAxYGrxSaMqCY2yvTzQwLS7S2B8GaQGnGRsVi+J9QXstm5TykckBxw+FKKjM3GoZ1q9Da4n1QZbRwGBZvBXk3VlZroUjKhETlB1cSBnkRFWHNrXxFhFcAKFqMUGiMTFhEkak1+JoyIblQqDxHGFSpYTO0aKsIrdpDQi7D0husvV05ZUICBC3JtJttZrAFUCncPSaUR2TA2jg1d8GnTESEHwMNwqA1jBTLAPOghRjQkE/JreRYPKNkPmUwcaMl6QBKuRX8CpPTYZYtxNEkLw/VI0RDNuVsyVrKYGIwwhmDwh/DEp5w0FvdbK+L0SDsQvgNwqLQpAwkWAYIdcp9uZUwWDClc4a2EMs9YFhCoT6karB2LzJlz8Kw7hiq5Nd4ZlgYDU8LlXfVFu8nxGo+85AOB7dhJvGrwcTQqQpNr86JDzhYxukfFtpiz6dCgSGX3VfWefOYLd4rZY8iccfYZFiW1ZaBBuV/C745AxL6NLkl74DRPBV1QLFsw3prLAPUYGFQvuUI3hYouFxKoVAwLB7rEqEpg4mWDdRbjuVmqwpBDVgGLbyI5Wl2YGGNMmTLQFqwJ1L2KAzHIZbG5t3oMtousb5OaAuxT8sCEN7Ke8rvah46kDIBYVhOmZC0gxrgSkbp8d3tq2ohvNObQ3lIGJaw6LCAlIGEYTloSYWGe8W4KMNiAC1CIXD03aFyOoRC/PaEGgYThnPrUJtkUGUYFQPTbhEiWxiWtZN6g7yj0frjQrP5PJio+uxnAFRqBlv+gcpi/Ao63sKwnD1oZ7tCwfs40aLGusmUCYkb6mi40iOUuMOXnhoKW2oBN8jdTFhL3OVXPGPKYMJwbOzjqRhWmZRxOBLSXwuPpdpEyWFYjw/NM50HFIZz41BtHN4KfiXfOjm01QiWnRAMGdzg5PvcfzWgMCwNYAbFg8h7gJa3DW3hrYghCoaM2WBNUoKjAwrjuWmo/Qkmc+RXeoXyq1biaF8eC3bGsPQqUwYThsWD2E2lKhSe/F5za9+8mM4RbnnJu4Qmq2FAYVg3DxWa4FfUkSOmlFuJMIvVADdTOOQ4/YDCsCTvVjS60X6CAlr27pwnLZfjIe8amoY1oJQcy0kT8h43W57VElsSCr0Hkp+qMFH3AYVh3SBUXqX5rH8HFb9uaCvRQmJYmtCYpC3ozyl7lpJjaeMg+DEuodBikFYir2JYgFinXpwjNGUwYVhwLPQVC0AcOMl7GVRtlfvI6SDv3hP92YxhymCipaNKQ0VG7jOoKrFmWC1bOowK5GAVt5O/UgYTTejbh7rJOFifPaISbD28FoalCS1xl89ZC9nqfVL2KDyWoQmhyY2GZwFJzRS2uuG49E74krw7XPOqoS1YFCl7FDcU8m4aGWiJ3YB8Z2FHq5EsBusUfL1Jw6oOgkr0fTBhOFYXCU28FeNSIT43tBWDVE71rlAeUvhFTc7x+sGE4ZS9DfjnMCz5lu0vrQzLqu0yTHFG6J1CW+2ISNmTMByhqVSEbjZ18pbpnRZi/MscI+9o4RqGw3lDUwYTByUxJAxSFSGvZYoGLNDCYxn1en6oHKscb5IHBgwoGJx2VakG9QpLiLpJaItqTT6F+mzJmzwL7/3CoSmDCaKd7TIM6lWhxrJ4LQ3iFtUaRB/iLq+D9lu6Jhwn5DCYlBvNsPTwcLL08U4KbdHWYUAIfs7QEQ7fFwrLyhGwwUQeBUtSFYIBJPESa0MPLSgt3s/iNT1JuyJQoSH9iWUNJm40aEFIen1oOZHilNBWZwbyUPI4jAqoP8ghsawBxaSMI95eG1q4UjbCOLCphdiHBRz1Xoz4saGJZQ0oIACj7wZIVWq8lv0KFw9tIajPrwhlVFTR0OJolZQ9i4TaxheeA/LuzEAY031CW1RrKlFnTMvpwA7IhS3OREyZiOC/vzEUk1QCL+9qQR1WbTJi3koCL89yvEry3weVS4YyJkApNWTRYgReBcgrWkYC3pDTodAkm3RQUZlJqnkrI/BCVIuJHYbl3GnvhaqDWfHeUMMVCZQOKKAHXCzVGgReIm/NUW1hPKZ1jPaXk1zRlREMszocVF4SKu+RZwmHeOm1wUsGjD0heWdYjBjX3mruZDoMKoYr3GwehCeRzLdYPlsOG+cVvZ9JbKH3sqEpAwrYwRiYik2eZey+BTcLo+HFoXqGDIvyWpL63EAzqNipwLiEKAZmyX9tUW2CHDS8tXZ4R+EX4p9H+A4qWi6MCkcLgPmC0NrVGs+oMoTwMyjVofeUdwnHWR0OKJrPBizADm446nLtzXsKAqwG5/ioQrEqGBbsDI2nVQM8Zc+CMsyoeC0GxghqisrQjKHigDFJ3hnW6aGo0hcJTRlQcN4h4242A5No16a2CLnoOTwWkFSFKPTylvcIzXA4oBhw4EnkP4wLmOlQgZriSLsHhkLdLdXlGbV37OoyItaKtpOyR+GdoPC8ljCF7YCuXLNR7D0eHvr+UDtJQRs8l5zuRaFXDxUyUwYSHPRHhhqHLxM1oICavCnvIXfjGW1RNmABOwNBmD3UO0xm6YByzVB7HYCY8izLPCwRqdniuUroW0LhZt7L+8DOeDEVo7nHlMEEOo7Ogi/FkwiLzwi1O6uWYJN6Dx7rnaHCobArHKoYW+5DTdmTWOMouTb4IKGWyAMwbQGs5bUQCZ2YbwyMlxJ6hV1MVhM8tfO6lAkI47ll6MtC3XQ3XFhkCLXaLiAF42DwKwn8B0J5R3kdw3p1qH0PKYOJPMsIvrAkFMp/3GyblWsNmRraUBhYEiLPcoiB/qGTX08NzXA4oDh13vQOj1KGTN1wAGatNg82g60zDj1nWMIhiANwyqD1FGtzwlL2LHAkORVcyQGZkmu5lv2h6DQ10HHvAXxFMgQ9fDCU8QqNeGG81rlDUwYThzYZsqDYCMKUqu2eobXyHyg8Gg0evDyLqg6h8W8NbXm+T8qeBHdKqHpeqN1WbjbVP7T3oQY6LtTpT6InqxD1C1GjNcFVpQ41SBR+MBHuLP7nsZ4ZCnOyKca6I6ex1uKpA0N5LYvfVKFCLgIgzyVMtqBIp+xZNKUtTAOQqgrRiFWJrwx1jEkNb4L85wgW8IYEXiKvveO9NMGh9CmDiVCldyf8nRb6oVBYkxsORGUUgMxtJ6cxGnhB1aAWEs8ogQdFPCe01VEsKXsUeBKjsq5bEs+TuOkOWwKY8ihwL0a2qTDg64XyhO8IVRkKiQzMDvqa7aSUiQiDOTH0haFvCmVYAFP4k/lDRvf00G1HuPQPecG3hao+vQ/vKO9ykGZu/xtQrDsSkoRE5DzQgwoRPACDYnAnhG5Dd2E4x4XajYpKo42kES7f8r6JaQ0o8qg7hwJMMT+FKeqmF+NSPW7rtYza3y307aEGWfUpFQuSehVqeq0B5fyhKkTVIYPSNOa1wA8wqNeF2vmwbRsGqRDZUEhEWcYuZWQ8ZostOCkTEEelPDlU3iPPoipFXkuSrb/IALcRhmkhGzapkCgcou/gbQFmc9hiQIFbyYP08QpXS6iCPfFaqjrGty2+xTPdPxTLVP9QvgWgRd3JzTSDinxLyNM0lgNR8AAvxqsY1d8GeiC8kl6litPrQuEZl/6h0zNSBhXtHEwHYUo45L3wqUAQwiHoYFsBujoJVmEgpxMWwRBCZJ6CP7A4jhdvvZx5KIlXvUHPAaY12j0AWDmdcIinxcAYl8Z1yqCizYJCg0rMa0Hj3XQhEtBZw6uAFxiRQVYkQGEX6+EpoduG25SJyhVCrTrSggELuOnAUyHLcrVa1OJzhVoYIo8DzHp9WJpDnlIGE2FOj9BOeEi55NpNN2Xjd0aggquxPcZ7XTpU2JXLeQ+JvKPpclnbgMJo0JexEoQ/0IPeXhm+wAqt5bWEXaQ/nC3vwTNaigv6qJHLpUxMgKGgh3kwU1jkVSDotSo42JaQCC/jEXkw5ytmD3FQ4TUYkP6eG46rxWvxLHCnWl6rhESMCgm8KtSImvnE7CEOKKoztJaXhsKyJNalgazdgzdfa1Ofds/1Q/UleUStJJz8TOQHFZv4AKMMC+vTUIRKEb7FazmrsFYuZOYRydAGQEtFeC58MJ4xmaYDirH800PhWpJ5gGaBIBzGVHMoQm5Xhl1hZ9B5lJ5cNTmgSNJtWuatVIQmqLFAeS7VXM2FaiXfMpZmYQmKjRCscQ33ShlMbhDqKGCMUtWbCrHAAxL8mriTfEtDGo7GkIVc84k+g405KQMJT/KQUD1DORDvpb+n3fOaUOP5tbwWkW/dKlR/ksfiGSX2zmDMrYCDia3ItsjgbCH/8VYMC0TgDOra64m8Hr49w5VrMTDMC6TATOYHEiFK41ijGDouRPFaoAdEwJoL3AgPaC7xoaH6lsDa94QaslWN1nyvlD0LXEnVBpXntcrghRAJGuDVagpiILgBeKoypbj5OPoYrQmgDiLaLDcKhTe9PBQEAeMy8CoHUr3Jj2oKz8RDqRR5SbRmjFaeLHfHDySIgBB5Y2O8h/wH5gTUtBn5GqE1E3kiYb9hqPxOQs+YVYy3CM3Vk4OIm8xrWR6CBfrhUEblZsuFnNvTooEMiHVEsBbTG0J5L17yLqF5kusgYkZQ6W/AAo+KIgEyMNCAfQ0tkmuce8yH4im1mbyvYdj0XAMI7wGwtLHG7geNY+wHVGM5kEUjFwutLZJ5++odrcJjmfSB0Mv3GHlSbQYQY/duJu+kt4f5IKnmRfx06kXtRJ6oBK2aRJ/WCfDeWj8M/DahyT7tXIQ6M4I21mi/yLEKb8vNlmRLuFtMODMua79VhowLSIvDZWEvT5oHb3YuPBLPxHsASgs3XogyPiaRbwUJqDwvGQrjEg4ZM5QexmXRSE77dC7nC9Ur5DkYF8PitTSr0Wx4tFb9vQKg6gRYB8DAdAGg9HqNuee0c7F+23SPAQzsTz1EhoUrr3qD2NfGtooIyVB4C3OFQ9uZDX1I8HHJWuR5KTsWM4m8Ba6WdZCgB14MC7Ul1oQzhmoDoIWryfc0rOV5ugFZLXYuvAfAUr6Ds6WPyMiwIo4PbXnyl5D8gFBGDIqwxUaFKv+zvTmJgp2LcS5n88h5hCSTPao22BZ2aKuQ6HVVigxJuwe2ZjcEI7OSUn8zEfrO5aKhcCUruHkNiLzfkQXPE9pKwBBwNbOJ+FsIiYoKrSYIPXji2NCUjgUhT4UmmReWcOV5D5SbllAA+vK9QssACMPGemXouPuq1DSujgXLU8sHV573wDhlXIwNYbAFcFqEV0RIhKdR3DEe61WhDE7FWGPXV8qeRMIs5wE5uLlmBRkYaKDlMKp8y/QQgJZB6V/K+eBqPKjq0bmJOZzRsWCVOk+HccG25D1+f2JoS6Iej+nkWEYkmQdB4I0hJQJSEQcZXwsWRsoORMhDsZFAu6H6iQ7g5MHkOy1XcesZajnZP8G48Lh4Ld5LWESzBlOkdCqqNWxP+JbtNSaptX54MnlYy92j2jpYGBJ4gC2PqY/JwLEibheaXqtjAY4q991gux8Yl2Qel8pu01Y3V77FKyED4osJh0BbqwJQfRQTQnIrfC1lByJZxkbQ0+M1gKeqNAl+y2RevmWPPJ4+r8WorAnQGRCShcTkcXUuoAAVmQpROFSlGaG3OHfb0y8OEgeAWo+knwiZp0KiHMxcZA7Cdi68g6qQ5+C15F5aPva/t2q7CHW4+vcOBUNI5sv6S4WFY4wdydISX0vZgQAogadyLWGJ58JI0DBuyQBlYPI9Ez9yLh7Le8v9LNbNwzkHEDdR28Wud2wI41w8GWS+dVhivMiAciwhEfyAgWpjdNJsBhAMUOi44+xQm+VAjwnFSm09Qs+4MDFUp5J6uR426jy1OSvGTuXyodB4YcmEj2RamDR10zrnUTAgAyIFet9SpUr0izCsNK4OhWfiuRgTOjO1WYYnsz255U3ltYC0rw2FzPspLAJOWwK3KTsSngkDFIAJ4/JTfw/dBUGwpWgr3Sn0CaHyvDJKduXQlAHEjZTn6CWCAfC4IOMS+tY0F5PbqlLNafmW3yXyyYAYQExXI+PBlSTyzvHR22NckuyWvHXh2BYdnkoo1Go6JXTbg9ZTJiDgB8MQkmh05s+EwrleEYpirN/XEobQUyzT1T6D7YFCZI6QdS6GIYQ9qLgtgUIhYiBGBKoLo5ut1mqLPM98pJP1tZwUDyeF2hWR0rGoDHkJJT/eFFoLnrxkHiMB89QQakHmGUJtbyLcakqj9JRWE5S+5ehaSmORzwBHEQJ5LB4DxsTA9BVNWLvh5YhfodMUdk1hrAY+CvRgAFeu1ZKQmNJYHNQkt3HMCWMyxqVpbOIHxVhCD4awSdCiNTshWixcc8QK6IO3YsjPDs0kvmNhQLyUHEtOZdAUtVjJz8BM3EDnVY0Flcezqi2lSa295PNYT6lwSMC0U9EftGtLGGQ8PBdKMyjA3ivhyZwgZN7fkey72S2QeXsoYFmgB8bsp/0QydnqUErIY1RCIg+FgcAzuaG22QiRsC1sCORA3qUFrRkvTM/QVI/iwWomJ3C0JiOmNBD73AGkeFKMSmPadmaGRUwwC0uQ8cJIuGBoCy+C3aBwYFSwNMWD+cTMtToUB4/Lq+RXZ4RiHMwaFjErqIcI3+LZeLlWYlSfUeGLlf7lY0MzHHYmjEh5D8fSM7T+CMtgNofiSdCIje0zMDe6RQJPVKkM6sxQOBqmq+UmeSJGZyIUogdjFwhzwp7tMfOC7aCXx2v5u9DyFgk8JimQVM+SYVGG5XOmdCSqLpgRLpZ8xkEBBhzmhRFpSmv5UAOpLfacqkY1pRnUx0NtKdReUqGmdCTm/uRNZaeVClGbZ5GYcBY23WhYE1CzhdeSZ/GMci0KepALpnQk9wwFJ/BUtvHJsazcXiY8hxEu4YlRtujnCXuSdvlVSeJ9zpROhLcR0oCgKkLGgi5jFnCZCH9yIB7FhA3AtPYAhkTdgl7eSq6FhOhzpnQiDAJjk6FgNviJ6XCB0GXi31g/aYTMv8GdEiJrei69SGi/PMsB66a3Hxaa0onAhh4cakoHMEo1mw/aWSq30m5hiPjxAExeppbnQqORywFk5Vf0UaEpE5X5RFtYs9lYAxoHC06FcHcQ55wBCU0SfkwE+Q8vB6WvIVil6DNCrd6lzoCFbSkTFEj6vGEBORHsCi2YB8IYXYXIh1VaGtSMwFDGlUJriCEOG3JUqDyoSR4nYaRMTBgULzNvWHp+mA1IfoXZAIlfpcHs9fCn5FnG5XkwoGkNmouczXYc3DAHqiMBtly5lLKhMILZ3l8RoetZoUIggBQXah2Em2GaCbRMDQvC2dU1SICM0/SOsIzdoMCofVp/ypbCS817qiJXDBVuhEGJO/YmY1lVvC4ajXCoz3i1UKP724qiwnolHlQYRDg8GgSSMiHhwQCcqjvJu1F7zed12zSSdobpNRAE5ULbVoc8FmOC7j8o1NKQbEJ3IhgLjwxV1TEuYXBT3hPIQkhkBLY1b3tmoeJBvxDhz5ZnGNaswS8K6ykTESU9VgNPpapjZJtSYZzjI9FWJQJMJdrbeC2fzWuBQBQTuPal+MB+EBZN8AxpYMvylh7EZ9fzY1TaOG4ilsOmxsCbWAWJ0yXhhsyjGW96jWx01r90hIrBDlRplarCQB5331BN6VacsJ2LL4d/LZfAWYLdXDi05QFILQQGhXfl5uGVQ8+h6ZsKAzJ3qDKElqswbxS6CevTawFtDcqi6agIPQSMl8H5M58X2bD7StGX5XrxsZXmuOGYlG6OygXy7EvKDTZ9SnclwsfdQ61r9F2Q9uRF21J/fW8HcmJImEVUzW2ybttDCqTV0jG1o6BgWB5guBncDeYmB4ObdStuBI63rr8uu/OPNUetl1aic/8qIs1bpbdxKl5NZePfTs3QsBHkQyo5jFEhrNYAKi/locPX8tBtsn/BA4yDL6QiHPJeKkItHS0e15vahtPtkAUP5OnW6rA76tOhjMpWFh5LK8T/8/RLgJXH8pVHhHrqXGghRjLKle872eQNhBYTOTyVG1iT8suQ4FnCKyOwV3RdgYP5fCAGFaEHledzLXHFPMxCLcztaLyxSQov4yL58OWkUp7qE6FcsC/N1dsvcGooY2JYPAAjU20xPIbo4shl8MUh3ceFSmzd5KMZWou5PZPGaMgGTxmACq5GC6YITy3/ceKYB846yHXpNBB3HomnUm0K0a6Vz659hOlgK43BVt63G1EZ2XtuKuWMUDmDL+Jp8dSgdAgdjMOFvFyoG8RLMTAX1RPFVbuBZuOEzc+GetpgMv6fVT3ARBfPa7qAJWz6b3nbOij4QWKZRzEqN11vr1YILIJuU2YUy1DGunkWD6rN5LoQD5h74roxLH1NqYcmdTdovC8ANwH2MRDeilHZuKLEnU9wGYIvrhvv6XRBPLFuHmqtUGmC2BogTMj/CWWgXr80ff0bHlBiyu0LnZ5EFZAcokaOJqR7UORVPptpYw9EbbGFhgfncfy8beg6VJpy/TEaSurg+/NYeoaunRyuHHxQ+8FoIr4U+IAxaKqaRPFk+JLc8kFfAnAnybedjkdScZl60Z1npF7Ln8ttlMrexw1wkfyEKZVhBv+fxxIWhGTeUcjyGV1oP2E4/oyxM+5lhYI/M3DqppSQLBH2GrVF4i3p5hF5LgyFdU6d8O99bw+Vz11SBTkqbEwEURh4aBkazz5p8QVUHi6GD+6EKjdCOQtGWHUflNdhgEA8ZbK9U26kRJYBceUmjoVEx30wJsamrcK4VJ4lpxNK/J0nhWqZ8GjwMwwCoCGvA9MRniW8Ln65EbPi4p8WqnynSvdtoYVlAhLgseWaUHOGxdusKtaA+56u9+x3ATt4XdfOtfGTAa7z2jsXT4bcAPWVl0Lid7M1QbdJbF0YXgyDgEFomajChD+hkKF5sgsXijfhzQCMqioh1DSMi8jY5WmMzd8xtWL7i16a12R8Qio0+lKhvJl+nXIdBOK9hEIgZoupmiJCt+/jweF51wEwbQwUGRgXmTUsfCwPnodUJJDLmphe5KEnIT4YGq7kW+w2eeInEE5iXeuDCzuMlKvHsvR+QqyT3b2XC8Vb8miUkfkcjIiByfHKZ2P8qtOPhTI4uxZ4Ov9eM5mnZUS8mZ/wNTmeMN+i0pwVeRsvK8zzsmW95CpiNXfJyeY9rweGF/SQqbY9kKLCZMXT6wlxQ5SxbiDvUdzxpnKQQbrBqiWtFU+53MxFVSAIV0JjWT7GUPwZr2PGjkeAbEvC/T/ewWdWifJq8g9hCAiqLaJa5TVbhb9Z0W/0oPj8vMyi0LxMPOClypu9fu6RlMJ39Z09eL7bpCtC5bynWshxYBEMirv1tM/SNNaVdRNjN8CN956MjaHp6EtY5VLyCR5OGe8Cy9mEPkOmvB2jknuANvxEFfZ9eDtG5jvyWC3DoO8ATIaPaR5vuvV43hg9gDBC38u98SAxtFV4+XsT7tToE2/lg5dcpFaZv60wNCHURRQihBqJO28gd2J0KkgXXogUOs376Q4AdBUhFMNTeS4v2SZvPJp4MIzG85Kgl00eTNd83rBKw5xByT/do0kn7r6E5qv8ROymkmFTK7W3AtcUXkdi7oKrlm4YCgcDbbjwchADnhJ8P42pMzRhHuzRCmqQTzFy+JXPtU4YLLLoc6nMkRA9GAorYR/wOoUHf6H4YG6KpFcIFDbcHIj05PGRGeGBVH9uqoqJ52VQwqLVjoxKWHSKPSiDR5Gf1L4xKmuYnYW0m4QphrjIGKUEXld+JbLwypNeaeTCCg2ehFKFyV9QY3oyLN8DvABKKLiZCoqHYlhG1OVcQiIYg1dWKdbmkGONglRADJt4q0X5n/Cqaa7KLPdInnnQpPbeBSLtCZajQMZVXL4IWGCyrnaBuJEwMwm6/EsCLSy6EYBF1SKPzMhQf1RWx4fWPGXLQwqvWwdiKKJKXnS9eT49QfdFNFEp6+PuosLdSoCJnl6hkAIuMRpgTZs8dfsWFxz6fbNQNwSmJCeRd4EhCh7G6OSWqs8a39NrwMo23Ze1LOfTxfDAC39nhIIy3LPJi6dcZaUkV7b7WaqanvnUQoW8C4lPGOGRhXkeTB9U/qXKgtfV8FreT1FQu1ITXnUVoO4a6IDlTVipOxdPmgTehZd7eLpdfC0dW+169FpFPDSIdrhhAGBwBK+FsGj9ou+JjAjL2zbsg0FU0jXTh5JfYZeAhDS3S3O6C1G2w67ADcJDOdqM1+ot15oXIUZryrFxQFQ3SI7FyHgApEXJ9jbf0cPHqGpDGIU/BpdThOggtD7xtaqoRuQHkGxxXGKrsQuPwQRoiVbvQtx4WJCcC1IvCYZnAR0l9tvyshjlsuR7U/FaHuzSdNZwx+LoTuA62hB6XJ5s5bkcBPUY6a7nkEjkPtgaQiKPDNsS9jE6toUdGEFNoyLaQYXyreHMW21Sbe5dtB+guXAY6C6jAjQKiRLcyeMmKwivparikeVYwEaDoFMr3T0ERvV5VqCoqr31ifpNRa4h1+J6Pc0FTNRJx+ScdNNzBVFNYV0CSuUt8pcp7pwS8oRs+aAIAh9rTfdpKp5cAJ8qSjgsgCnKii+KXtOlOz4iknjfB5PDw2PTzDYMjhZic40CSvUKYdem6oLXfpDArrAHYD6qRLiWhF5HXU+x12QeM4KHKgCpRH4dLvouhFfCIHW95VWKi1qrJychBhcQ7mBZZVoHcs2DCZU455NvKcwILjzGhpwF45QHXocyvCsxoYRnpieokAKGdh0C5wUeAxzVjGZMwqJKigcDpHratRV6qBQlwvYpMCafn+cV7mtjTtsKLNF0k2Rdp0DyPkQInBc3BLZVGJpiPrIctJpxgSF66Fnp3Z0UKrRTn3tqoVz6YRhVJV6YF93uZFhFkOlUg5JJ7AA9NmHRBWBoAFUN3ykLjMoDgs9kJYCwOCWRUjB8AyEqcYCtPHZqHrW6aCGUkMhjeeoxAxgWNsTUF1MI1zA4/UBV4ZQEqIq6w5iEP/mryrsVdXpS4snR8jAjp/z1ZMm39NrkLDhO2BFHO3tmClKbdVBDFBDPD9WzFP7wrKb4OZuJJ0gCbEpG1aIchs5LNEtoRE8xF5eymqj2EBK1mPQDGdWh8FTzokIBQaAxK9t5L8g8TIhhaY8g/NfcDjOqMCrMXe0ycI6cqveuxlYi8eW5uO8yJm/FEdBR913uBbXfZpfn6CK14J1Qp8E2qNRTQ/93LhJhuRTgDo+pLKkQDuFEOEOAVEnoFAHIfQuvjwpjQQnwWZ9yKAB0G2FcaDQGM1WE2g5osxBtVBT5l2rRxQNF1KaT9CpaM9B/k91y1a428e1KGBePBB1GCET0B5zikZvb01/0U2/OsELvRMFtpJAoYVX6f36WTX0pC4RxGc9H9C97Snks83yAPgm9MIn6YQD2MFY8vrPtfFIDe7LQX3pmh+xM5AdaD8IiZF6OZcIH1wngB+/SUGV4dg3oh40eGn0/xuO6aNMYgFABGuxIWUO0JFSLknctHx5LqwcyT/GfMDa1hRhg640v+xIeXJfCVJBlJbb12IvRS7N+ksJz2QsF6IMga1wzKEwC+ZYEv4RInC67CFBzRhHeSMhTLYNj0Io8bPPe2UNodcGhBEI3Fa0IAxkWYjAehqVCZFzYECaSIfWMS2jUFMbjHqGFYfABOdL3X+aNrS1nfAzPIO2hx67WEeAfnGt2rRBcC94lmYfWMyx5mDk/uRgOUu3lHLsWnulouaPvJxXQVzV5w7tve57hoRTuXjjgqaDywiDPxYsxLD+1Mww1wL9AFrr6I+Yi8i7GhBmi/aWKNi10mCGYrURlpLy2VgiAymMJh/AuIRKmowmrx2ifKIIbvndP65OOJjyYo108SL4vrI8Xt/B26kyQyYvQqCpSJQl/6CHvDeW9GJaLztDsUvhoqByM93JDehbFDPozjy38aXkJhfbeW1mQUkEYF/wKloP9AHpgVEIhA/M0W6vNuACqfmrQGs3qsePP454Qqq1V6NwqZeu0DzWDoZWU0KgaRBbEjGBAQFStICokWthhSpmaqTO21UPupbrVviozmYiQihP5pWbzoSLw7VokrPhavBH+uQlribynG7gqmUcgPPOIMjyVpePUpvq0MxgTTfJDOJ48klGhcsun0KJ7GpXrWoy6w7CMkmtUA1B5MSESv0vP0U+hRKgEPMJ+ptZnM13jITEGL1/ErmVceFZC/wj7LroTVRMDc7gSZqoFY26QPIunAlPoP+q3GeYQTqYSEhk4hoKCxKpvFZ9mO2yOoan65JYpexYtDug1EpyzdbAB5FvyE7/ru+17PaJwhtMPXbcFUCgH/grhFo2gxihSMuxNUNwUyboEX+JL8eqBp/vwANou9pMyKNQffc/bh6pogZ5mLrEYaq+ITGkg1wiF+zAongAGtumSXTdbcj170xnoMiMtf1+BAYfiQbWccPzlTiADCbnqDztWWyapxR0IDAh/iWcQYk4O3fToFbOQAEksCgZDJdMowfOlv9zN/8O6kNMJv2hAtugxLAcvocPYTqOyzfypM7HOGldeyY7TZUPwugk7ugqDgnQLV5JsxiWpxrxgHAyDcfGEOgNOtPD/cdGtk5SEgw/8W0h5GlLHIqxY2KHlo63DW62zbYUnAV9Y/6NNZBSNgfI4XsvsnsY4zInBGm1XFJwYKuQ5cEABwUN2sUc9ZTWBU8GBoNaatbzXqsJLyX+Aqc6YBrI6+UtvEk5W4Ay/WwfAkByMyVvxSIxyNg9LGUQkwFoh2jyAUkn7Ks1axmAhic3HQFb4F9QbDACwlK/hPjEq0zG8Fc+YkMAhEZPTWKc8DONadTEawyprxLWGhECGxWvJm+RTwhpDSo90CEV+wxh4GZ5rnWFOFBsLSfC5cO0ZVOZIKWd5JsakLcIwlPar8MHlRTjkqkjUZ/jSptBEyoACaZdUy4+AkKq3o0EMQpoGr3F1lBuDGRaqZd6UcpaUnMemYJiTvqCqUFN6mUjy4U0WatgrZTcqCCFxppTPS/FKqrbCJsVuWLYCiVHBqRiUXMyGQSNX8yh6yiEWRlUMSwVo15ZRfMS/Rcty5VPovvIwST6FjG/aQ0wZVHifEr7kS8VYtHFQT2aFR0JJEfb0D0386Ollop5yNmFYJdnGgzfNAsMS3uahBtvvUJd5NMaFnTlvfCkpZxPeyPSOvEnTeHaHqcFOW2sk9saoJO25WyplJXFGIizK+D3DsvnO4ASjkqiDIeze4rGmvE8+ZWICbhAKGY+2jNYOwBSazos5jHOEIdaUHYuVkzyWlozk3ABFGcPHdEB5QQHO1T8pa4mJFzscypG6vBQPpk1DYVe5mSVlI5Gw41NRrRoDC1o7i2jEKSkri/aOxrNwJ3FnTOtSklNSUlJSUlJSUlJSUlJSUlJSUlJSUlJSUlJSUlJSUlJSUlJSUtaTY475P3XhX2X6V17YAAAAAElFTkSuQmCC;flipH=1;" vertex="1" parent="1">
          <mxGeometry x="172" y="5" width="49" height="212" as="geometry" />
        </mxCell>
        <mxCell id="uiWN8VyQoNOUGCsHgGrA-32" value="" style="shape=image;verticalLabelPosition=bottom;labelBackgroundColor=default;verticalAlign=top;aspect=fixed;imageAspect=0;image=data:image/png,iVBORw0KGgoAAAANSUhEUgAABhwAAAKECAYAAAD8EpDQAAAACXBIWXMAAAsTAAALEwEAmpwYAAAKT2lDQ1BQaG90b3Nob3AgSUNDIHByb2ZpbGUAAHjanVNnVFPpFj333vRCS4iAlEtvUhUIIFJCi4AUkSYqIQkQSoghodkVUcERRUUEG8igiAOOjoCMFVEsDIoK2AfkIaKOg6OIisr74Xuja9a89+bN/rXXPues852zzwfACAyWSDNRNYAMqUIeEeCDx8TG4eQuQIEKJHAAEAizZCFz/SMBAPh+PDwrIsAHvgABeNMLCADATZvAMByH/w/qQplcAYCEAcB0kThLCIAUAEB6jkKmAEBGAYCdmCZTAKAEAGDLY2LjAFAtAGAnf+bTAICd+Jl7AQBblCEVAaCRACATZYhEAGg7AKzPVopFAFgwABRmS8Q5ANgtADBJV2ZIALC3AMDOEAuyAAgMADBRiIUpAAR7AGDIIyN4AISZABRG8lc88SuuEOcqAAB4mbI8uSQ5RYFbCC1xB1dXLh4ozkkXKxQ2YQJhmkAuwnmZGTKBNA/g88wAAKCRFRHgg/P9eM4Ors7ONo62Dl8t6r8G/yJiYuP+5c+rcEAAAOF0ftH+LC+zGoA7BoBt/qIl7gRoXgugdfeLZrIPQLUAoOnaV/Nw+H48PEWhkLnZ2eXk5NhKxEJbYcpXff5nwl/AV/1s+X48/Pf14L7iJIEyXYFHBPjgwsz0TKUcz5IJhGLc5o9H/LcL//wd0yLESWK5WCoU41EScY5EmozzMqUiiUKSKcUl0v9k4t8s+wM+3zUAsGo+AXuRLahdYwP2SycQWHTA4vcAAPK7b8HUKAgDgGiD4c93/+8//UegJQCAZkmScQAAXkQkLlTKsz/HCAAARKCBKrBBG/TBGCzABhzBBdzBC/xgNoRCJMTCQhBCCmSAHHJgKayCQiiGzbAdKmAv1EAdNMBRaIaTcA4uwlW4Dj1wD/phCJ7BKLyBCQRByAgTYSHaiAFiilgjjggXmYX4IcFIBBKLJCDJiBRRIkuRNUgxUopUIFVIHfI9cgI5h1xGupE7yAAygvyGvEcxlIGyUT3UDLVDuag3GoRGogvQZHQxmo8WoJvQcrQaPYw2oefQq2gP2o8+Q8cwwOgYBzPEbDAuxsNCsTgsCZNjy7EirAyrxhqwVqwDu4n1Y8+xdwQSgUXACTYEd0IgYR5BSFhMWE7YSKggHCQ0EdoJNwkDhFHCJyKTqEu0JroR+cQYYjIxh1hILCPWEo8TLxB7iEPENyQSiUMyJ7mQAkmxpFTSEtJG0m5SI+ksqZs0SBojk8naZGuyBzmULCAryIXkneTD5DPkG+Qh8lsKnWJAcaT4U+IoUspqShnlEOU05QZlmDJBVaOaUt2ooVQRNY9aQq2htlKvUYeoEzR1mjnNgxZJS6WtopXTGmgXaPdpr+h0uhHdlR5Ol9BX0svpR+iX6AP0dwwNhhWDx4hnKBmbGAcYZxl3GK+YTKYZ04sZx1QwNzHrmOeZD5lvVVgqtip8FZHKCpVKlSaVGyovVKmqpqreqgtV81XLVI+pXlN9rkZVM1PjqQnUlqtVqp1Q61MbU2epO6iHqmeob1Q/pH5Z/YkGWcNMw09DpFGgsV/jvMYgC2MZs3gsIWsNq4Z1gTXEJrHN2Xx2KruY/R27iz2qqaE5QzNKM1ezUvOUZj8H45hx+Jx0TgnnKKeX836K3hTvKeIpG6Y0TLkxZVxrqpaXllirSKtRq0frvTau7aedpr1Fu1n7gQ5Bx0onXCdHZ4/OBZ3nU9lT3acKpxZNPTr1ri6qa6UbobtEd79up+6Ynr5egJ5Mb6feeb3n+hx9L/1U/W36p/VHDFgGswwkBtsMzhg8xTVxbzwdL8fb8VFDXcNAQ6VhlWGX4YSRudE8o9VGjUYPjGnGXOMk423GbcajJgYmISZLTepN7ppSTbmmKaY7TDtMx83MzaLN1pk1mz0x1zLnm+eb15vft2BaeFostqi2uGVJsuRaplnutrxuhVo5WaVYVVpds0atna0l1rutu6cRp7lOk06rntZnw7Dxtsm2qbcZsOXYBtuutm22fWFnYhdnt8Wuw+6TvZN9un2N/T0HDYfZDqsdWh1+c7RyFDpWOt6azpzuP33F9JbpL2dYzxDP2DPjthPLKcRpnVOb00dnF2e5c4PziIuJS4LLLpc+Lpsbxt3IveRKdPVxXeF60vWdm7Obwu2o26/uNu5p7ofcn8w0nymeWTNz0MPIQ+BR5dE/C5+VMGvfrH5PQ0+BZ7XnIy9jL5FXrdewt6V3qvdh7xc+9j5yn+M+4zw33jLeWV/MN8C3yLfLT8Nvnl+F30N/I/9k/3r/0QCngCUBZwOJgUGBWwL7+Hp8Ib+OPzrbZfay2e1BjKC5QRVBj4KtguXBrSFoyOyQrSH355jOkc5pDoVQfujW0Adh5mGLw34MJ4WHhVeGP45wiFga0TGXNXfR3ENz30T6RJZE3ptnMU85ry1KNSo+qi5qPNo3ujS6P8YuZlnM1VidWElsSxw5LiquNm5svt/87fOH4p3iC+N7F5gvyF1weaHOwvSFpxapLhIsOpZATIhOOJTwQRAqqBaMJfITdyWOCnnCHcJnIi/RNtGI2ENcKh5O8kgqTXqS7JG8NXkkxTOlLOW5hCepkLxMDUzdmzqeFpp2IG0yPTq9MYOSkZBxQqohTZO2Z+pn5mZ2y6xlhbL+xW6Lty8elQfJa7OQrAVZLQq2QqboVFoo1yoHsmdlV2a/zYnKOZarnivN7cyzytuQN5zvn//tEsIS4ZK2pYZLVy0dWOa9rGo5sjxxedsK4xUFK4ZWBqw8uIq2Km3VT6vtV5eufr0mek1rgV7ByoLBtQFr6wtVCuWFfevc1+1dT1gvWd+1YfqGnRs+FYmKrhTbF5cVf9go3HjlG4dvyr+Z3JS0qavEuWTPZtJm6ebeLZ5bDpaql+aXDm4N2dq0Dd9WtO319kXbL5fNKNu7g7ZDuaO/PLi8ZafJzs07P1SkVPRU+lQ27tLdtWHX+G7R7ht7vPY07NXbW7z3/T7JvttVAVVN1WbVZftJ+7P3P66Jqun4lvttXa1ObXHtxwPSA/0HIw6217nU1R3SPVRSj9Yr60cOxx++/p3vdy0NNg1VjZzG4iNwRHnk6fcJ3/ceDTradox7rOEH0x92HWcdL2pCmvKaRptTmvtbYlu6T8w+0dbq3nr8R9sfD5w0PFl5SvNUyWna6YLTk2fyz4ydlZ19fi753GDborZ752PO32oPb++6EHTh0kX/i+c7vDvOXPK4dPKy2+UTV7hXmq86X23qdOo8/pPTT8e7nLuarrlca7nuer21e2b36RueN87d9L158Rb/1tWeOT3dvfN6b/fF9/XfFt1+cif9zsu72Xcn7q28T7xf9EDtQdlD3YfVP1v+3Njv3H9qwHeg89HcR/cGhYPP/pH1jw9DBY+Zj8uGDYbrnjg+OTniP3L96fynQ89kzyaeF/6i/suuFxYvfvjV69fO0ZjRoZfyl5O/bXyl/erA6xmv28bCxh6+yXgzMV70VvvtwXfcdx3vo98PT+R8IH8o/2j5sfVT0Kf7kxmTk/8EA5jz/GMzLdsAAAAgY0hSTQAAeiUAAICDAAD5/wAAgOkAAHUwAADqYAAAOpgAABdvkl/FRgAAK3lJREFUeNrs3X30LHV9H/D373J5JoBGRRRFCYpPIAnmeIwiHG18iA8lWqMNMcGHpKaxFmtq8WgNtrbek8bj0VTUJFp8zJNWQiQxxiBGExWi3IAKRKqAgggCl/L8cNn+MUu83uK9v93PzuzM7Ot1zhwEd3d2v5+Zz3xn3vubXZtMJgEAAAAAAKjYYAgAAAAAAIAqgQMAAAAAAFAmcAAAAAAAAMoEDgAAAAAAQJnAAQAAAAAAKBM4AAAAAAAAdZPJ5P9bkmxJMikux+5gtSdu99hLWvhoJ2y3jhN28NjjFvB5d/YZjt3u8SfP8Zm2rcvmnTx2+890YgtjvHmb19+yk8ceuYAxnuxkHact4PVP1hU6ocf0s8dcUljfPMuWVazL9Dg717G6eBxo4/PNoovjwCK2ZccB/X8Vt2G9pb+9RW36WZvO50zbzAXMZVmkS3p8jWHeZdZtua/XGPR/cyZ1ma+XzbscN8Mxc55l8wJrecIC6rJ5xu3l5HvKEH7U4i8cAAAAAACAMoEDAAAAAABQttEQQNm++UF4tzXJDQt+/d2T7LnNv9+U5I4evBaA/q//A4DjsuMyAPwzf+EAdecluW66fK6F1//1bV7/uiTPWvJrHZf2790JoP/r/wDguOy4DMDACBwAAAAAAIAygQMAAAAAAFAmcAAAAAAAAMoEDgAAAAAAQJnAAQAAAAAAKBM4AAAAAAAAZQIHAAAAAACgTOAAAAAAAACUCRwAAAAAAIAygQMAAAAAAFAmcAAAAAAAAMoEDgAAAAAAQJnAAQAAAAAAKBM4AAAAAAAAZQIHAAAAAACgTOAAAAAAAACUCRwAAAAAAIAygQMAAAAAAFAmcAAAAAAAAMoEDgAAAAAAQJnAAQAAAAAAKBM4AAAAAAAAZQIHAAAAAACgTOAAAAAAAACUCRwAAAAAAIAygQMAAAAAAFAmcAAAAAAAAMoEDgAAAAAAQJnAAQAAAAAAKBM4AAAAAAAAZQIHAAAAAACgTOAAAAAAAACUCRwAAAAAAIAygQMAAAAAAFAmcAAAAAAAAMoEDgAAAAAAQJnAAQAAAAAAKBM4AAAAAAAAZQIHAAAAAACgTOAAAAAAAACUCRwAAAAAAIAygQMAAAAAAFAmcAAAAAAAAMoEDgAAAAAAQJnAAQAAAAAAKBM4AAAAAAAAZQIHAAAAAACgTOAAAAAAAACUCRwAAAAAAIAygQMAAAAAAFAmcAAAAAAAAMoEDgAAAAAAQJnAAQAAAAAAKBM4AAAAAAAAZQIHAAAAAACgTOAAAAAAAACUCRwAAAAAAIAygQMAAAAAAFAmcAAAAAAAAMoEDgAAAAAAQJnAAQAAAAAAKBM4AAAAAAAAZQIHAAAAAACgTOAAAAAAAACUCRwAAAAAAIAygQMAAAAAAFAmcAAAAAAAAMoEDgAAAAAAQJnAAQAAAAAAKBM4AAAAAAAAZQIHAAAAAACgTOAAAAAAAACUCRwAAAAAAIAygQMAAAAAAFAmcAAAAAAAAMoEDgAAAAAAQJnAAQAAAAAAKBM4AAAAAAAAZQIHAAAAAACgTOAAAAAAAACUCRwAAAAAAIAygQMAAAAAAFAmcAAAAAAAAMoEDgAAAAAAQJnAAQAAAAAAKBM4AAAAAAAAZQIHAAAAAACgTOAAAAAAAACUCRwAAAAAAIAygQMAAAAAAFAmcAAAAAAAAMoEDgAAAAAAQJnAAQAAAAAAKBM4AAAAAAAAZQIHAAAAAACgTOAAAAAAAACUCRwAAAAAAIAygQMAAAAAAFAmcAAAAAAAAMoEDgAAAAAAQJnAAQAAAAAAKBM4AAAAAAAAZQIHAAAAAACgTOAAAAAAAACUCRwAAAAAAIAygQMAAAAAAFAmcAAAAAAAAMoEDgAAAAAAQJnAAQAAAAAAKBM4AAAAAAAAZQIHAAAAAACgTOAAAAAAAACUCRwAAAAAAIAygQMAAAAAAFAmcAAAAAAAAMoEDgAAAAAAQJnAAQAAAAAAKBM4AAAAAAAAZQIHAAAAAACgTOAAAAAAAACUCRwAAAAAAIAygQMAAAAAAFAmcAAAAAAAAMoEDgAAAAAAQJnAAQAAAAAAKBM4AAAAAAAAZQIHAAAAAACgTOAAAAAAAACUCRwAAAAAAIAygQMAAAAAAFAmcAAAAAAAAMoEDgAAAAAAQJnAAQAAAAAAKBM4AAAAAAAAZQIHAAAAAACgTOAAAAAAAACUCRwAAAAAAIAygQMAAAAAAFAmcAAAAAAAAMoEDgAAAAAAQJnAAQAAAAAAKBM4AAAAAAAAZQIHAAAAAACgTOAAAAAAAACUCRwAAAAAAIAygQMAAAAAAFAmcAAAAAAAAMoEDgAAAAAAQJnAAQAAAAAAKBM4AAAAAAAAZQIHAAAAAACgTOAAAAAAAACUCRwAAAAAAIAygQMAAAAAAFAmcAAAAAAAAMoEDgAAAAAAQJnAAQAAAAAAKBM4AAAAAAAAZQIHAAAAAACgTOAAAAAAAACUCRwAAAAAAIAygQMAAAAAAFAmcAAAAAAAAMoEDgAAAAAAQJnAAQAAAAAAKBM4AAAAAAAAZQIHAAAAAACgTOAAAAAAAACUCRwAAAAAAIAygQMAAAAAAFAmcAAAAAAAAMoEDgAAAAAAQJnAAQAAAAAAKBM4AAAAAAAAZQIHAAAAAACgTOAAAAAAAACUCRwAAAAAAIAygQMAAAAAAFAmcAAAAAAAAMoEDgAAAAAAQJnAAQAAAAAAKBM4AAAAAAAAZQIHAAAAAACgTOAAAAAAAACUCRwAAAAAAIAygQMAAAAAAFAmcAAAAAAAAMoEDgAAAAAAQJnAAQAAAAAAKBM4AAAAAAAAZQIHAAAAAACgTOAAAAAAAACUCRwAAAAAAIAygQMAAAAAAFAmcAAAAAAAAMoEDgAAAAAAQJnAAQAAAAAAKBM4AAAAAAAAZQIHAAAAAACgTOAAAAAAAACUCRwAAAAAAIAygQMAAAAAAFAmcAAAAAAAAMoEDgAAAAAAQJnAAQAAAAAAKBM4AAAAAAAAZQIHAAAAAACgTOAAAAAAAACUCRwAAAAAAIAygQMAAAAAAFAmcAAAAAAAAMoEDgAAAAAAQJnAAQAAAAAAKBM4AAAAAAAAZQIHAAAAAACgTOAAAAAAAACUCRwAAAAAAIAygQMAAAAAAFAmcAAAAAAAAMoEDgAAAAAAQJnAAQAAAAAAKBM4AAAAAAAAZQIHAAAAAACgTOAAAAAAAACUCRwAAAAAAIAygQMAAAAAAFAmcAAAAAAAAMoEDgAAAAAAQJnAAQAAAAAAKBM4AAAAAAAAZQIHAAAAAACgTOAAAAAAAACUCRwAAAAAAIAygQMAAAAAAFAmcAAAAAAAAMoEDgAAAAAAQJnAAQAAAAAAKBM4AAAAAAAAZQIHAAAAAACgTOAAAAAAAACUCRwAAAAAAIAygQMAAAAAAFAmcAAAAAAAAMoEDgAAAAAAQJnAAQAAAAAAKBM4AAAAAAAAZQIHAAAAAACgTOAAAAAAAACUCRwAAAAAAIAygQMAAAAAAFAmcAAAAAAAAMoEDgAAAAAAQJnAAQAAAAAAKBM4AAAAAAAAZQIHAAAAAACgTOAAAAAAAACUCRwAAAAAAIAygQMAAAAAAFAmcAAAAAAAAMoEDgAAAAAAQJnAAQAAAAAAKBM4AAAAAAAAZQIHAAAAAACgTOAAAAAAAACUCRwAAAAAAIAygQMAAAAAAFAmcAAAAAAAAMoEDgAAAAAAQJnAAQAAAAAAKBM4AAAAAAAAZQIHAAAAAACgTOAAAAAAAACUCRwAAAAAAIAygQMAAAAAAFAmcAAAAAAAAMoEDgAAAAAAQJnAAQAAAAAAKBM4AAAAAAAAZQIHAAAAAACgTOAAAAAAAACUCRwAAAAAAIAygQMAAAAAAFAmcAAAAAAAAMoEDgAAAAAAQJnAAQAAAAAAKBM4AAAAAAAAZQIHAAAAAACgTOAAAAAAAACUCRwAAAAAAIAygQMAAAAAAFAmcAAAAAAAAMoEDgAAAAAAQJnAAQAAAAAAKBM4AAAAAAAAZQIHAAAAAACgTOAAAAAAAACUCRwAAAAAAIAygQMAAAAAAFAmcAAAAAAAAMoEDgAAAAAAQJnAAQAAAAAAKBM4AAAAAAAAZQIHAAAAAACgTOAAAAAAAACUCRwAAAAAAIAygQMAAAAAAFAmcAAAAAAAAMoEDgAAAAAAQJnAAQAAAAAAKBM4AAAAAAAAZQIHAAAAAACgTOAAAAAAAACUCRwAAAAAAIAygQMAAAAAAFAmcAAAAAAAAMoEDgAAAAAAQJnAAQAAAAAAKBM4AAAAAAAAZQIHAAAAAACgTOAAAAAAAACUCRwAAAAAAIAygQMAAAAAAFAmcAAAAAAAAMoEDgAAAAAAQJnAAQAAAAAAKBM4AAAAAAAAZQIHAAAAAACgTOAAAAAAAACUCRwAAAAAAIAygQMAAAAAAFAmcAAAAAAAAMoEDgAAAAAAQJnAAQAAAAAAKBM4AAAAAAAAZQIHAAAAAACgTOAAAAAAAACUCRwAAAAAAIAygQMAAAAAAFAmcAAAAAAAAMoEDgAAAAAAQJnAAQAAAAAAKBM4AAAAAAAAZQIHAAAAAACgTOAAAAAAAACUCRwAAAAAAIAygQMAAAAAAFAmcAAAAAAAAMoEDgAAAAAAQJnAAQAAAAAAKBM4AAAAAAAAZQIHAAAAAACgTOAAAAAAAACUCRwAAAAAAIAygQMAAAAAAFAmcAAAAAAAAMoEDgAAAAAAQJnAAQAAAAAAKBM4AAAAAAAAZQIHAAAAAACgTOAAAAAAAACUCRwAAAAAAIAygQMAAAAAAFAmcAAAAAAAAMoEDgAAAAAAQJnAAQAAAAAAKBM4AAAAAAAAZQIHAAAAAACgTOAAAAAAAACUCRwAAAAAAIAygQMAAAAAAFAmcAAAAAAAAMoEDgAAAAAAQJnAAQAAAAAAKBM4AAAAAAAAZQIHAAAAAACgTOAAAAAAAACUCRwAAAAAAIAygQMAAAAAAFAmcAAAAAAAAMoEDgAAAAAAQJnAAQAAAAAAKBM4AAAAAAAAZQIHAAAAAACgTOAAAAAAAACUCRwAAAAAAIAygQMAAAAAAFAmcAAAAAAAAMoEDgAAAAAAQJnAAQAAAAAAKBM4AAAAAAAAZQIHAAAAAACgTOAAAAAAAACUCRwAAAAAAIAygQMAAAAAAFAmcAAAAAAAAMoEDgAAAAAAQJnAAQAAAAAAKBM4AAAAAAAAZQIHAAAAAACgTOAAAAAAAACUCRwAAAAAAIAygQMAAAAAAFAmcAAAAAAAAMoEDgAAAAAAQJnAAQAAAAAAKBM4AAAAAAAAZQIHAAAAAACgTOAAAAAAAACUCRwAAAAAAIAygQMAAAAAAFAmcAAAAAAAAMoEDgAAAAAAQJnAAQAAAAAAKBM4AAAAAAAAZQIHAAAAAACgTOAAAAAAAACUCRwAAAAAAIAygQMAAAAAAFAmcAAAAAAAAMoEDgAAAAAAQJnAAQAAAAAAKBM4AAAAAAAAZQIHAAAAAACgTOAAAAAAAACUCRwAAAAAAIAygQMAAAAAAFAmcAAAAAAAAMoEDgAAAAAAQJnAAQAAAAAAKBM4AAAAAAAAZQIHAAAAAACgTOAAAAAAAACUCRwAAAAAAIAygQMAAAAAAFAmcAAAAAAAAMoEDgAAAAAAQJnAAQAAAAAAKBM4AAAAAAAAZQIHAAAAAACgTOAAAAAAAACUCRwAAAAAAIAygQMAAAAAAFAmcAAAAAAAAMoEDgAAAAAAQJnAAQAAAAAAKBM4AAAAAAAAZQIHAAAAAACgTOAAAAAAAACUCRwAAAAAAIAygQMAAAAAAFAmcAAAAAAAAMoEDgAAAAAAQJnAAQAAAAAAKBM4AAAAAAAAZQIHAAAAAACgTOAAAAAAAACUCRwAAAAAAIAygQMAAAAAAFAmcAAAAAAAAMoEDgAAAAAAQJnAAQAAAAAAKBM4AAAAAAAAZQIHAAAAAACgTOAAAAAAAACUCRwAAAAAAIAygQMAAAAAAFAmcAAAAAAAAMoEDgAAAAAAQJnAAQAAAAAAKBM4AAAAAAAAZQIHAAAAAACgTOAAAAAAAACUCRwAAAAAAIAygQMAAAAAAFAmcAAAAAAAAMoEDgAAAAAAQJnAAQAAAAAAKBM4AAAAAAAAZQIHAAAAAACgTOAAAAAAAACUCRwAAAAAAIAygQMAAAAAAFAmcAAAAAAAAMoEDgAAAAAAQJnAAQAAAAAAKBM4AAAAAAAAZQIHAAAAAACgbOOP+O8HJ1krvvaNO/j/3pXk1G3+/a4WPttHkpy2zb/fvIPHnpHkXsX17ewzfH67ddw6xzq2rcvWnTx2+890SwtjfHSSXab/e7KTx56/gDHemeOT7Fp8jVu1hU7oMf3sMUfkB0H0rOubx0RdOj0OtPH5ZtHFcWAR27LjgP6/ituw3tLf3qI2/ayNOVP/50zMvi337RrDvBa5LS/zGoP+b86kLvOtb143zXDMnMfWBY7vvO9nlp5/fqUua5NJbe6ytrYWYKXsmmTv7SaatxkWAP0fgB1z/o3jMgBjn78IHAAAAKCHJ+zOvwGAoc1f/IYDAAAAAABQJnAAAAAAAADKBA4AAAAAAECZwAEAAAAAACgTOAAAAAAAAGUCBwAAAAAAoEzgAAAAAAAAlAkcAAAAAACAMoEDAAAAAABQJnAAAAAAAADKBA4AAAAAAECZwAEAAAAAACgTOAAAAAAAAGUCBwAAAAAAoEzgAAAAAAAAlAkcAAAAAACAMoEDAAAAAABQJnAAAAAAAADKBA4AAAAAAECZwAEAAAAAACgTOAAAAAAAAGUbDQEAAAAAAOzUfkke2uP3d0uSi5b6DiaTSWkBAAAAnH8DwMg9OMkFSSY9X359mfMXf+FAktwvyaMG8l7/PsntSgaDdMj04KzHOA7M6uokX7MLsZ0tab5dNCYvSXKq3qK3qM1q9/21tTVzJobkcUn2Wcfjvp/kq0t+r0/K+u70ccl00f/1f3VxXN7W4Un+MskDB/BeT5n+811LWfsSv2FxRJLfS3Jpkjuz/OTntCQPWsGd5aAkF6f/ydzdy+lJdtPj0GMG5/FJrtdjHAfmXLYmeZm2xna2DGj+st7lBL1Fb1GbcddmHefX5kwMzeYZzoeGMnc4Wf/X/9XFnGk7xwzk+NzKXzrMnBcsIXDYJclbpxtr34pwbZLnaWomtwyaHtM/QzlxXsUeM7TjwBu1OOa4aCBw0Fv0FrXpjZGEDc7L2NbmCBz0f/1fXcbtXyW5bcDnGOXQoe+Bw67Tg0zfC3FKkj00NZNbBkeP6Z+hnTivUo8Z6nHglDTBImyJwEFv0VvUZmBGFDY4L+NumyNw0P/1f3UZr1emn19o7TR06Hvg8L4BFeLcJAdraia3DIoe0y9DPXFehR4z9OPAx7I6oR31iwYCB71Fb1Gb3hhZ2OC8jETgoP/r/+oy7msaYzrXOGyR85e+BA4vG2Ahrk5ytKZmcssg6DH9OzBfr8c4DrS4/G3G94PBtHPRQOCgt6x6b1GbHhlh2OC8jM0ROOj/+r+6jNOxIzvXOHJR85e+BA4PTHLDQItxa5p7dY3FX4zw5Py15ngrT4/pnyv0GJPbDpaPaH8rbUsEDnqL3qI2A3MP59PmTAzd5ggc9H/9X13G6dgIHO5x/rKzZUNHBdqUZJ+Bbly7J/njJMePZGfZa4QNYK+w6vQY+6XPsr7J7VlJfkJtAL1F31cbn8lnAcdm/UVd1IU2dBE4PDzDv5C2IckHkjzHJgO9o8eMy3eTPDjJ2oKXVxnavGlkk1tAb0FtzJnMmQD9X12gZ7oIHF4znbi04fokVyW5NMll03+/tcWx+kiSR9hsoFf0mPG4Ocmzk3y7hdf+3STvXPF9ZRftAtBb1AZzJnMm0P9RF2jTxpZff+8kv1h8ja1Jvpzkc0nOTfKtJN9McuUOnrNHkodMl8OS/EySJye5f/G97JPkPUmOselAL+gx43FXkn+d5CstruPfJzkkyTPtOrByLk/y0QG8z68rFWDOBACD860kf5L2vqSaNKHVq5Ls2/fBaDtweF7mv6/6p5O8N8kZaX4Mdha3Jrlwunwyydun//3wJC9K8vIk95vzfT05zcXAz9qXYOn0mPF4bZLTW17H1iQvTBMuPdbuAyvl4iQnGgbAnMmcCQBa8CvT42bbPpHkU+l56NB24PCCOZ5zQZKXJvliC+/n/Ony5iQnJXlD5rut1EuzehcDL0/ywSS3tfT6Ryd5iv6EHrOSPeacJG/taF03JPm3Sf7O7jOTv2ppn0maHxp7SZL7GGbQW/QWtcGcCdD/UZeBuSnJFzpa15eSPC19Dx0mk0lp2YE9ktySZDLDcm6S/Tr8+MfP+P7uXq4Y8E5w1hyf90+S7N/y+9qQ5uLs1jne38l620rSY/ptywyf96yO39uRK9pjTp1ze3xr2r/f6AHTCdOs7+00rXCl9bnPrBK9RW3UpnD+bc7ECGwe0P67ZUW2Zf1fXdRlMY5d5zicv4T39vg0vzM6S72OXNT8ZWdLmz8a/YQ0FwTX69Ykz58OVlc+nPl+EOvAJA9YkcnDB9P8Oe2WltdzV5pvhT8lyXfN2dBjVqbH0F93pflm42vShMFt+l6a+0SfYdhBb9Fb1AYA/R91GZBlfGn0S0ne0dcBaTNwOHrGx5+S5odau3Zymj99mdUhK9LcXp0mBevKZ9Mkbn+tX6HHwNLckORZSd7V4Tq3xj32QW/RW9QGAP0fdRmWG5e03q19HZA2A4ejZnz87y9pDL6f5ONzPO+AFdhhzklyzRLWe1WSZ2T2H/Jltegx0J63p/lB9K5dnORbhh/0Fr1FbQDQ/9VFXQbC9cvttBk4PGqGx16U5MIljsPpczxnvxXYPj62xHXfNV1Aj4HuLfObEp80/KC36C1qA4D+ry7qwjC1FThsTPKQGR7/pSWPwzy/JL7/CmwfZ9pF6Ck9BsbrS4YA0FvUBgD9H3UZiFsMwQ9rK3A4OM0FwfW6cMnj8J05No59R75t3J7kPLsIPaXHwHhdZAgAvUVtAND/UZeBuM0Q/LC2AocHzfj4y3owFrO+h31Gvm2cl+QOuwg9pcfAeH3DEAB6i9oAoP+jLgxTW4HDvWd8/E09GItZ38PGkW8bX7Z70GN6DIzXNUmuMwyA3qI2AOj/qAvD01bgMOutQG7swVjcPOPj10a+bXzF7kGP6TEwbr5VA+gtagOA/o+6MEBtBQ53tvz4NjxixsdPRr5tXGD3oMf0GBi3bxsCQG9RGwD0f9SF4WkrcLhxYOPw4CT3sTn8kK8bAnpMj4Fxu8IQAHqL2gCg/6MuDE9bgcPNAxuHx83xnDHfz+ya6QJ9pcfAuF1uCAC9RW0A0P9RF4anrcDh2hkff/iSx+GoOZ5z1Yi3C7dTou/0GBg3f8IL6C1qA4D+j7owQBtbet1ZL5T9dpKzkpy/pHGY52Lg9zQWWBo9BsbNX9kBeovaAKD/oy7LdGWS96/jcWcbqh/WVuBwRZK7sv6/oNgjyZ+mue1I1/dm35D5LgZePOLtwjer6Ts9BsbtekMA6C1qA4D+j7os0YVJTjAMs2srcLgzzf2+HjTDcw5L8u4kv9TxGByf2X/Mdet0oxuiTya5ZCePOcuuQc/pMTBuV2R93yT5iqEC9Ba1AUD/R13oj40tvvZFme1iYNJcmDsryR909PmflOQ9c3622wda8002e0ZCj4Hxuiy+SQLoLWoDgP6PujA4G1p87a/N+bx3JDmw5c+9MclrkpyZZM85nv85mw4snR4zHo9KcmiH63uu3QcAMGcyZwIAFq/NwOHcOZ+3Z5L3pbnnehuekuScJL+TZNc5X+NvbTqwdHrMeNw3zV+edHECfVKSN9l9AABzJnMmAGDx2gwc/irNfcjn8Ywk5yX5jST3W9D7+akkn0ryN0mOLLzOTUnOsOnA0ukx4/LADk6gT0ryFrsOAGDOZM4EALSjzd9wuDLJaUmeP+fzH5bkf6a5/cnnk7wrzcW8a2d4jV2TPDzJG5P8woI+1+/Hr7VDH+gx4z2B/vkkVy/4tY9P8ma7DQBgzmTOBAC0Z2PLr//6JM9JslvhNTYkefJ0SZLb0vxa+neTfDvJVWkuzu2eZL80PyL7gDT3aL/fgj/P5Ul+y2YDvaHHjPME+mybNgCAORMAMDxtBw4XJfmPSd6+wNfcPclDp0uXbk/zTer/a7OB3tBjAAAA+m+vJA9Z8nvYoAzACruzqxVt7GAd70jyE0leNeCC3JHkBUm+ZNuE3tFjANiZ+yc5oSfv5eNxe04AVs/PJvmWYQBGZNckey9x/XvM8Nh3J/lqV29sY0frOTHJDWlufzI016W5N+Zn7UfQW3oMADtyWJL/1ZP38tIkz0hys7IAAMBgPSvNl4n67jtJXtPlCrv6c7JJkjek+QbvkL7R9YUkR8aFQOg7PQaAoTg6yR8l2cVQAAAALftQOv6y08aOP+BH01xg+0Sai2x99qYk/yXJXbZLGAw9BhZvtzR/hXPgEtZ9c5L3JtmqDIzMc6bb9kvShOZ6i96iNmoDoP/r/+pCGy7ueoUbl/Ahj0tyxACK8aIkpya5xHYJg6LHwGIcmOQV0+V+S3wfxyT5ZZNcRuhXklyb5D/oLXqL2qgNgP6v/6sLLem+dpPJpLTMYNc0P+46GdByZZKjbJdLs2WddTrZUKHH9M6FA6vFKvSYU2f4zJcmub1HNfhw3H6G+ecJfV9ep7foLWqzOrW5h/NpcyaGbvOItuGxbMv6v7qoSzeOG0hP+zeLnr/sbOnqNxwemOQzSf7dwDacA9LcW/2Z9iHoNT2mf345yR02zcF6cJoQry9+MckHTHIZqf+e5OV6i96iNitbG3MmQP93bFYX2nRI1yvsInB4apJzkzxxoEXZO8mfJXmu7RN6SY/pp7OTvNbmiUkurMt7kjzfMOgtrF5tJpOJOROAY7O60KbnJp390UHS8srWkpyU5FNJ7jvwwuya5sdof942Cr2hx/Tf25OcZlPFJBfWNSf/w7iVp97CqtbGnAnAsVldaMsj0vFfVLcVOOyS5t5kb0nHCUqL7r4g+Au2U1g6PWYYJkleGj+MjUkurPc4cLhh0FtYvdpMmh9zMGcCcGxWF9ryjjS36urExpZe991p7kU5NhuSfCjJVUnOsq3C0ugxw3Fdkp9L8vgevacHJ3mT3Wjwk9xM+8BWwwHoLWozdJPJ5Lq1tTVzJgDHZnUZjs8k+cklrv8VWf8PQu+e5N5JLuvijbUROLw84/7hu12TfCzJTyf5ph4DndNjhueC6dIXRzp5Hs0k97tJftNQrKzzk/xYT9/bbkkeqUR6C2ozi8lkstM509ramjkToP+jLv1wfZLNS1z/lX0dmEUHDg9I8raW3/ONSS5P8r0035y9M8ldaVKaeye5T5r7ue/R4nu4d5pvIT9pum6gG3oMsK1DDcFKO7rn7++j8UPQegtqA+P3wiR7DuS9fi7JPkqm/6MutGvRgcN/XXDz/n6SM5N8Ick/JjkvyTXrfO5BSR6W5FHTE9JjkxywwPf2hDR/OnSqzQg6o8cAMBQvT/Mj0A8xFACM2EUDeq9uyQPQgUUGDgclefECXufKJO9N8qdpLv5N5nyd70yXzyR55/S/PTrJ89JcxFtECvfKuBgIXdFjABiSLWm+9fn5NLfLAwAAGL1FBg4vLp5MfT/N/SF/L8ntLX3er02XNyf5F0len+SYwusdleYWL1fYlKB1egwsx81JTkhyTsvrOX6678CYnJ3kpCRvNRR6i9qoDYD+r/+rC6tgkYHDiwrPPT3Nn51f3dHnniT56+nyrCTvSvKgOV/rp5P8mU0JWqfHQPe+m+TZSb7Swbr+W5o/c3+LYWdk3pbkaUmebij0FrVRGwD9X/9XF8Zuw4Je58AkR8z53JOTHJfuLgRu74wkR6a5h/s8HmMzgtbpMdC9f0zy+I4mt3fblOR1hp6RmST5omHQW9RGbQD0f/1fXVgFiwoc5r1lyIlpbnEyWfI4XJvmvuu3zvHcR9mMoHV6DHTrzDQ/hv7tJax7U5LfUgLQW/QWtQFA/1cXdWF4FhU4HDnHc96c5O09GosrM99tSw6wGUHr9Bjo1p8nuWGJ6z9dCUBv0VvUBgD9X13UheFZ5C2VZvH5JG/s4XhcPMdz7m8zgtbpMQAAAADQc4sKHGa9Xcn/yfJvcXJP7pzjOfexGUHr9BgAAAAA6LkNhqBsb0MA6DEAAAAArDqBQ90+hgDQYwAAAABYdRsNAQAAAAAA/LPHJfmDdT72hUkuMmQNgcNi7J7kNsMA6DEAndkvydpOHjNJcr2hAgAAZrRPkseu87F7Gq4fEDgsxp5xMRDQY7b1uSQ/to7HvXu6AMzq0jShw46cN8NJAkDn1tbW1j1nmkwm5kwAQO8JHABow+HZ+YXAJLm/oQJadIkhAMyZAAC640ejAQAYq4khAAAA6I7AAQCAsdrfEAAAAHRH4AAAwFgdYAgAAAC6I3AAAGCsDjHfBQAA6I4TMAAAxmq3JAcbBgAAgG4IHAAAGLPHGAIAAIBuLCpwuMNQAi3SYwCY108aAgAAgG4sKnC4esXHcatNCVqlxwAwr8cZAgAAgG4sKnC4bMXH8QabErRKjwFgXkcZAgAAgG4sKnD4+oyP33VEY3i9zQhap8cAMK8HJDnIMAAAALRvUYHDuUkmMzz+6Ul27+F47DfHc66zGUHr9BgAKp5qCAAAANq3qMDhhiT/MMPjfzzJS3o4Ho+d4zn/ZDOC1ukx0K3Dlrx+30Zn0V5gm9Zb1EFtAND/1UVdWvLoJazz0L4OxoYFvtZfzvj4Nya5V4/G4qFJjpnjeRfYp6ATegx05xVJ3pNk4xLW/fgkH1YCFuzoJPsvad0nJXmZEugtaqM2APq//q8uo/XBJG9OsktH69uU5Pi+DsYiA4c/nPHxByZ5f4eF2JG9phvGPOPxD/Yp6IQeA936tSRnZL5bgVUmt59Ksq/hZ8H2nZ447dnxek9K8hbDr7eojdoA6P/6v7qM2lqS1yc5M81vyLVpU5L/1OfBWGTgcGGSL874nOekuYi4xxLH4Kem7/uJczz3jiR/YZ+CTugx0L2nJfm7JAeb3DICP5fk75M8sqP1CRv0FrVRGwD9X/9Xl9Xy5CSbp7VrQ+/DhmTxf5rztiR/PONzXpDkiCS/mSa5m3T02R85LdCLM3/w8oEk19qXoDN6zPj8TJpA6NYO13mUXWkmj07zw+2XtbyeQ5Psbbhp2ZFJzktyTpLbW1zPbkmeYLj1FrVRm0XOmdbW1syZAP1fXdSl/+6b5JNJzs9ir0Htlu6+PFWy6MDhY0m+keRhMz7vsCR/nuTSJJ9IcnaSL6f5sdQ7Fvj+Dk7yzCQvTHJs8bVuSPIm+xB0So8Zn59N8ukk/zLJNR2s70lJTrErzexe6ddvokB1/isM0FtQG3MmcyZA/1cX2rKW5suvK3vCtUhb03yj93/P+fyDk/zGdEmSu5JckeYi4eVJtiS5bvrPu7/ZccN0vdvbkObHAQ9I8vA032h7yAI/66uTfNv+A53SY8bpiWluc/LMJN9scT2HJjktzbcCAADMmcyZAIAFa+PXzj+e5G+SPHUBr7UhyUHTpU/ek+S9Nh9YCj1mnB6e5rcunp3mL1AW7d5pbqn143YhAMCcyZwJAGjHxpZe91eTfDXJXiMcs9Pyg29HA8uhx4zTfZOcleQ/Z/G3CnjZ9AR9lV3vMzEyVyfZzzbtPftMamPOZM4E6P8+g8/UgqvS/O7bGP7i75Y0d/ToxmQyKS078OI0P4wxpuX0+LPSLm1ZZ11ONlQrSY8Zx/47hGUsPWavJGeOqC5nJtlXK1xphyb5zoi26U16i96iNuOvzT2cT5szgWsM+v9qHJvVZZiOSROsDLlWNyd5yiLnLzvNC1oMHJLkbS4EYjJAi/SY/vrqiGrzhhHVZSyT3I87JjP1sDR/6SBs0Fv0FrUZhHs4nzZnAtcY9P/VOTaryzAdkeZ3P1cybLin+cuyA4e1JKeMYEd6vwsbJgP0kh7TXwcluXgEtbkmzY+Nu/jUn+V9SXbR/tjG4Rl26LBJb9Fb1GZ1anMP59PmTOAag/6/WsdmdRmmg5NcmBUMG+5p/rLswOFur0xy60B3pN+eXtTEZID+0mP6aegn0JcmeYyLT71a3uqYzI8w1NBhk96it6jNatXmR5xTmzOBawz6/2odm9VlmO6T5AtZsbDhR81f+hA43H0i+OmB7Uivdjw2GWBQF5v0mP4Z6gn0h5Ls7+JTr5bXaXOs4zgwpNBhk96it6jN6tVmB+fV5kzgGoP+v1rHZnUZbt3OyAqFDTuav/QhcLjbsUn+KMltPS7MOUmeZR8yGWCQ9Jj+GdIJ9D8lebqLT71atib5Na2NdRpK6LBJb9Fb1GY1a7OTc2tzJnCNQf93XFaX/tslTdje12XvLucvfQkc7rZfkmcn+R9pkqFvzND8F7ncmOTsJO9M8ktJDrDfmAwwCnpMv/T9BHpzkl9NstHFp14ttyd5gXbGjPoeOmzSW/QWtVnd2qzj/NqcCVxj0P8dl9WFQc1ftl/WiqEBAAAAAABANhgCAAAAAACgSuAAAAAAAACUCRwAAAAAAIAygQMAAAAAAFAmcAAAAAAAAMoEDgAAAAAAQJnAAQAAAAAAKBM4AAAAAAAAZQIHAAAAAACgTOAAAAAAAACUCRwAAAAAAIAygQMAAAAAAFAmcAAAAAAAAMoEDgAAAAAAQJnAAQAAAAAAKBM4AAAAAAAAZQIHAAAAAACgTOAAAAAAAACUCRwAAAAAAIAygQMAAAAAAFAmcAAAAAAAAMoEDgAAAAAAQJnAAQAAAAAAKBM4AAAAAAAAZQIHAAAAAACgTOAAAAAAAACU/b8BAB0SeixDsnksAAAAAElFTkSuQmCC;" vertex="1" parent="1">
          <mxGeometry x="53" y="217" width="118" height="48.59" as="geometry" />
        </mxCell>
        <mxCell id="uiWN8VyQoNOUGCsHgGrA-34" value="&lt;font style=&quot;font-size: 7px;&quot;&gt;&lt;font&gt;&lt;span style=&quot;line-height: 107%;&quot;&gt;This event is sanctioned by IGC license NO.948673&lt;/span&gt;&lt;/font&gt;&lt;/font&gt;" style="rounded=0;whiteSpace=wrap;html=1;strokeColor=none;" vertex="1" parent="1">
          <mxGeometry x="5.5" y="265" width="213" height="31" as="geometry" />
        </mxCell>
      </root>
    </mxGraphModel>
  </diagram>
</mxfile>
